<svg width="60" height="65" viewBox="0 0 60 65" fill="none" xmlns="http://www.w3.org/2000/svg">
<path d="M56.6663 19.5546L36.6673 2.4804C34.8337 0.884003 32.4601 0 30.0001 0C27.5401 0 25.1666 0.884003 23.333 2.4804L3.33393 19.5546C2.27554 20.4776 1.43075 21.6086 0.85475 22.8722C0.281154 24.1384 -0.0116454 25.5086 0.000354509 26.8918V55.263C0.000354509 57.8448 1.05394 60.3226 2.92833 62.1478C4.80511 63.973 7.34909 65 10.0011 65H49.9991C52.6511 65 55.1951 63.973 57.0695 62.1478C58.9463 60.3226 59.9999 57.8448 59.9999 55.263V26.858C60.0071 25.48 59.7119 24.1176 59.1383 22.8592C58.5623 21.5982 57.7199 20.4724 56.6663 19.5546ZM36.6673 58.5078H23.333V42.2786C23.333 41.4154 23.6858 40.5912 24.3098 39.9828C24.9338 39.3744 25.7833 39.0312 26.6665 39.0312H33.3337C34.2169 39.0312 35.0641 39.3744 35.6905 39.9828C36.3145 40.5912 36.6673 41.4154 36.6673 42.2786V58.5078ZM53.3327 55.263C53.3327 56.1236 52.9823 56.9478 52.3559 57.5562C51.7319 58.1672 50.8847 58.5078 49.9991 58.5078H43.332V42.2786C43.332 39.6942 42.2784 37.2164 40.404 35.3912C38.5296 33.566 35.9857 32.539 33.3337 32.539H26.6665C24.0146 32.539 21.4706 33.566 19.5962 35.3912C17.7194 37.2164 16.6658 39.6942 16.6658 42.2786V58.5078H10.0011C9.11548 58.5078 8.26829 58.1672 7.64429 57.5562C7.0179 56.9478 6.6675 56.1236 6.6675 55.263V26.858C6.6675 26.3978 6.7683 25.9428 6.9651 25.5216C7.1595 25.103 7.44509 24.7286 7.80029 24.4244L27.7993 7.3814C28.4089 6.8614 29.1913 6.5754 30.0001 6.5754C30.8089 6.5754 31.5913 6.8614 32.2009 7.3814L52.1999 24.4244C52.5551 24.7286 52.8407 25.103 53.0351 25.5216C53.2319 25.9428 53.3327 26.3978 53.3327 26.858V55.263Z" fill="black"/>
</svg>
