<svg width="66" height="63" viewBox="0 0 66 63" fill="none" xmlns="http://www.w3.org/2000/svg">
<path d="M49.5008 27.9989H46.1997C45.3253 27.9989 44.4858 28.3685 43.868 29.0237C43.2471 29.6789 42.9017 30.5693 42.9017 31.5C42.9017 32.4274 43.2471 33.3178 43.868 33.973C44.4858 34.6315 45.3253 34.9978 46.1997 34.9978H49.5008C50.3752 34.9978 51.2147 34.6315 51.8356 33.973C52.4534 33.3178 52.8019 32.4274 52.8019 31.5C52.8019 30.5693 52.4534 29.6789 51.8356 29.0237C51.2147 28.3685 50.3752 27.9989 49.5008 27.9989ZM49.5008 42H46.1997C45.3253 42 44.4858 42.3662 43.868 43.0248C43.2471 43.68 42.9017 44.5704 42.9017 45.4978C42.9017 46.4285 43.2471 47.3189 43.868 47.9741C44.4858 48.6293 45.3253 48.9989 46.1997 48.9989H49.5008C50.3752 48.9989 51.2147 48.6293 51.8356 47.9741C52.4534 47.3189 52.8019 46.4285 52.8019 45.4978C52.8019 44.5704 52.4534 43.68 51.8356 43.0248C51.2147 42.3662 50.3752 42 49.5008 42ZM29.7005 21H49.5008C50.3752 21 51.2147 20.6304 51.8356 19.9752C52.4534 19.3166 52.8019 18.4262 52.8019 17.4989C52.8019 16.5715 52.4534 15.6811 51.8356 15.0226C51.2147 14.3674 50.3752 13.9978 49.5008 13.9978H29.7005C28.8261 13.9978 27.9866 14.3674 27.3656 15.0226C26.7479 15.6811 26.3994 16.5715 26.3994 17.4989C26.3994 18.4262 26.7479 19.3166 27.3656 19.9752C27.9866 20.6304 28.8261 21 29.7005 21ZM62.7021 3.8147e-06H16.4992C15.6248 3.8147e-06 14.7853 0.366241 14.1675 1.0248C13.5466 1.68 13.2013 2.5704 13.2013 3.49776V13.9978H3.30111C2.42356 13.9978 1.58403 14.3674 0.966256 15.0226C0.348487 15.6811 0 16.5715 0 17.4989V52.5C0 55.2821 1.04229 57.9533 2.89877 59.9222C4.75524 61.8912 7.27384 63 9.90016 63H52.8019C56.3026 63 59.6607 61.525 62.135 58.8974C64.6092 56.2733 66 52.7117 66 48.9989V3.49776C66 2.5704 65.6547 1.68 65.0337 1.0248C64.416 0.366241 63.5764 3.8147e-06 62.7021 3.8147e-06ZM13.2013 52.5C13.2013 53.4274 12.8528 54.3178 12.235 54.973C11.6141 55.6315 10.7745 55.9978 9.90016 55.9978C9.02578 55.9978 8.18624 55.6315 7.5653 54.973C6.94753 54.3178 6.59905 53.4274 6.59905 52.5V21H13.2013V52.5ZM59.401 48.9989C59.401 50.857 58.7071 52.6344 57.4684 53.9482C56.2297 55.2619 54.5507 55.9978 52.8019 55.9978H19.2079C19.5912 54.8755 19.7908 53.6928 19.8003 52.5V6.99888H59.401V48.9989ZM29.7005 34.9978H33.0016C33.876 34.9978 34.7155 34.6315 35.3333 33.973C35.9542 33.3178 36.2995 32.4274 36.2995 31.5C36.2995 30.5693 35.9542 29.6789 35.3333 29.0237C34.7155 28.3685 33.876 27.9989 33.0016 27.9989H29.7005C28.8261 27.9989 27.9866 28.3685 27.3656 29.0237C26.7479 29.6789 26.3994 30.5693 26.3994 31.5C26.3994 32.4274 26.7479 33.3178 27.3656 33.973C27.9866 34.6315 28.8261 34.9978 29.7005 34.9978ZM29.7005 48.9989H33.0016C33.876 48.9989 34.7155 48.6293 35.3333 47.9741C35.9542 47.3189 36.2995 46.4285 36.2995 45.4978C36.2995 44.5704 35.9542 43.68 35.3333 43.0248C34.7155 42.3662 33.876 42 33.0016 42H29.7005C28.8261 42 27.9866 42.3662 27.3656 43.0248C26.7479 43.68 26.3994 44.5704 26.3994 45.4978C26.3994 46.4285 26.7479 47.3189 27.3656 47.9741C27.9866 48.6293 28.8261 48.9989 29.7005 48.9989Z" fill="black"/>
</svg>
