<svg width="58" height="57" viewBox="0 0 58 57" fill="none" xmlns="http://www.w3.org/2000/svg">
<path d="M26.0777 0.912632C27.2945 -0.304211 29.2624 -0.304211 30.4663 0.912632L33.3394 3.78568C34.5692 5.01547 34.5433 7.02221 33.2876 8.22611L17.689 23.0874H54.8931C56.6148 23.0874 58.0004 24.4722 58.0005 26.1939V30.3365C58.0005 32.0582 56.6148 33.4429 54.8931 33.4429H17.689L33.2876 48.3042C34.5563 49.5081 34.5821 51.5149 33.3394 52.7447L30.4663 55.6187C29.2496 56.8354 27.2816 56.8352 26.0777 55.6187L0.912629 30.4663C-0.304213 29.2495 -0.304213 27.2816 0.912629 26.0777L26.0777 0.912632Z" fill="black"/>
</svg>
