<svg width="585" height="1801" viewBox="0 0 585 1801" fill="none" xmlns="http://www.w3.org/2000/svg">
<g clip-path="url(#clip0_603_6)">
<path d="M585 0C585 594.33 585 1188.66 585 1801C391.95 1801 198.9 1801 0 1801C0 1206.67 0 612.34 0 0C193.05 0 386.1 0 585 0Z" fill="#030504"/>
<path d="M585 1636C585 1690.45 585 1744.9 585 1801C391.95 1801 198.9 1801 0 1801C0 1206.67 0 612.34 0 0C37.95 0 75.9 0 115 0C113.35 1.32 111.7 2.64 110 4C105.156 9.30336 102.77 14.2157 101.621 21.3555C100.711 26.9084 99.3728 32.0706 97.5 37.375C89.8315 59.6671 90.5597 84.694 100.863 106.035C106.968 117.71 116.446 130.957 128.621 136.801C135.413 140.25 139.73 143.37 142.461 150.719C144.237 156.335 145.68 162.036 147.122 167.746C154.44 194.859 170.115 222.106 192.125 239.684C212.189 255.849 212.189 255.849 213.238 265.102C213.263 265.934 213.287 266.767 213.312 267.625C213.35 268.442 213.387 269.26 213.426 270.102C212.409 277.022 208.034 282.633 203.875 288.062C198.838 294.792 194.136 301.68 189.522 308.703C187.743 311.387 185.939 314.053 184.133 316.719C176.581 327.89 169.166 338.998 163 351C162.563 351.838 162.127 352.676 161.677 353.539C139.004 397.463 139.552 442.175 145.744 490.012C145.986 491.889 146.216 493.767 146.445 495.645C147.375 502.56 148.955 508.575 151.813 514.938C152.399 516.268 152.399 516.268 152.998 517.625C166.914 548.24 188.409 575.616 209 602C209.667 602.856 209.667 602.856 210.347 603.729C218.656 614.391 227.163 624.869 235.918 635.169C238.779 638.539 241.593 641.94 244.375 645.375C251.576 654.215 259.079 662.815 266.75 671.25C270.626 675.518 274.264 679.95 277.859 684.457C279.992 687.114 279.992 687.114 282.828 689.512C283.545 690.333 284.262 691.154 285 692C280.761 730.412 250.293 771.11 228.47 801.846C227.046 803.933 225.759 806.06 224.5 808.25C220.245 815.067 215.3 818.423 207.551 820.41C206.709 820.605 205.867 820.799 205 821C204.21 821.205 203.42 821.41 202.605 821.621C197.956 822.77 193.784 823.204 189 823C190.173 820.458 191.491 818.271 193.063 815.938C196.798 810.274 196.699 804.598 196 798C193.848 791.081 190.111 785.88 184 782C183.025 781.381 183.025 781.381 182.031 780.75C171.635 775.478 157.641 776.561 146.786 779.849C143.128 781.091 139.555 782.489 136 784C134.368 784.685 134.368 784.685 132.703 785.383C97.6012 801.634 65.417 838.091 52 874C48.4628 884.886 49.14 894.673 54 905C55.2466 907.413 56.5635 909.691 58 912C58.0748 911.238 58.1495 910.476 58.2266 909.691C60.2122 894.098 70.7914 884.917 82.6875 875.562C85.1121 873.691 87.5548 871.844 90 870C90.5944 869.545 91.1888 869.09 91.8013 868.621C101.189 861.438 110.968 855.107 121.149 849.105C122.754 848.147 124.329 847.14 125.898 846.125C126.592 845.754 127.285 845.383 128 845C128.66 845.33 129.32 845.66 130 846C129.227 846.69 128.453 847.379 127.656 848.09C110.247 863.733 96.669 881.551 92 905C91.6597 906.702 91.6597 906.702 91.3125 908.438C89.4758 929.376 94.8065 948.196 108.094 964.582C132.816 992.917 168.979 1005.69 205.797 1008.6C210.634 1008.92 215.442 1009.05 220.289 1009.07C221.498 1009.08 222.707 1009.09 223.953 1009.1C226.409 1009.12 228.865 1009.11 231.32 1009.08C242.962 1009.25 250.833 1013.51 258.938 1021.75C263.123 1026.75 265.804 1031.88 268 1038C268.295 1038.82 268.59 1039.63 268.895 1040.47C272.535 1052.07 272.85 1064.57 273.461 1076.64C273.521 1077.8 273.521 1077.8 273.582 1078.98C273.78 1082.88 273.966 1086.77 274.127 1090.67C275.262 1115.64 280.128 1139.2 299.063 1157C302.889 1160.24 306.888 1163.2 311 1166.06C311.538 1166.45 312.075 1166.84 312.629 1167.24C325.552 1175.93 340.745 1179.49 355.75 1182.62C392.227 1190.34 392.227 1190.34 400.648 1202.41C402.639 1206.23 403.725 1210.26 404.906 1214.38C408.82 1227.64 415.756 1239.79 422.53 1251.76C429.895 1264.82 434.957 1277.21 431.164 1292.33C427.59 1301.48 421.75 1309.09 415.125 1316.25C393.363 1340.35 384.555 1372.64 381.066 1404.22C379.189 1420.64 376.919 1433.36 366.613 1446.8C363.747 1450.71 361.386 1454.91 359 1459.12C358.511 1459.99 358.021 1460.85 357.517 1461.73C348.937 1477.04 340.585 1492.99 336 1510C335.81 1510.64 335.619 1511.28 335.423 1511.93C330.162 1529.71 329.123 1551.26 335 1569C335.391 1570.19 335.781 1571.38 336.184 1572.6C342.382 1590.12 353.643 1605.99 368.191 1617.6C377.653 1625.69 380.953 1637.09 382 1649C383.948 1674.98 377.287 1701.49 370.066 1726.3C359.731 1757 359.731 1757 361.188 1788.25C363.235 1791.36 364.696 1792.36 368 1794C371.921 1794.6 375.85 1794.46 379.813 1794.44C380.868 1794.46 381.923 1794.48 383.01 1794.5C389.401 1794.49 394.835 1794.06 400 1790C406.424 1780.53 405.53 1764.25 406.659 1753.27C407.986 1740.56 410.099 1729.71 415.289 1718C417.847 1712.18 419.517 1706.17 421 1700C421.226 1699.08 421.451 1698.15 421.684 1697.2C424.768 1682.14 423.912 1665.81 420 1651C419.833 1650.35 419.666 1649.7 419.495 1649.04C414.088 1628.88 403.238 1609.95 393.486 1591.62C378.395 1563.18 367.505 1533.38 377 1501C379.722 1493.59 383.87 1487.14 388.188 1480.56C389.12 1479.1 389.12 1479.1 390.072 1477.62C395.219 1469.73 400.999 1461.24 409 1456C411.938 1455.44 411.938 1455.44 415 1456C418.975 1460.11 421.361 1464.32 423.5 1469.62C423.827 1470.42 424.154 1471.21 424.491 1472.03C431.507 1489.39 437.579 1507.17 443.742 1524.85C454.332 1555.14 466.786 1583.38 489 1607C489.538 1607.6 490.075 1608.2 490.629 1608.82C507.392 1626.85 536.132 1640.03 560.539 1641.11C563.131 1641.17 565.72 1641.19 568.313 1641.19C569.632 1641.21 569.632 1641.21 570.979 1641.22C571.827 1641.23 572.676 1641.23 573.551 1641.23C574.69 1641.24 574.69 1641.24 575.853 1641.24C580.085 1640.76 581.998 1639 585 1636Z" fill="#015D2E"/>
<path d="M578 907C578 910.3 578 913.6 578 917C574.877 918.041 572.564 918.17 569.285 918.246C568.134 918.277 566.982 918.309 565.796 918.341C564.564 918.373 563.332 918.405 562.063 918.438C528.92 918.188 528.92 918.188 500.574 932.52C496.897 937.714 497.511 943.911 498 950C498.166 950.838 498.331 951.677 498.502 952.54C499.165 957.145 499.182 961.673 499.203 966.32C499.214 967.825 499.214 967.825 499.225 969.361C499.445 1009.93 495.581 1048.17 483 1087C482.618 1088.19 482.236 1089.37 481.842 1090.59C480.603 1094.4 479.338 1098.2 478.063 1102C477.489 1103.73 477.489 1103.73 476.903 1105.5C473.713 1114.78 469.557 1123.34 465 1132C464.639 1132.69 464.277 1133.38 463.905 1134.08C460.915 1139.76 457.89 1145.42 454.855 1151.07C450.596 1159.01 446.449 1166.97 442.59 1175.11C442.263 1175.8 441.937 1176.48 441.601 1177.19C433.766 1193.94 431.265 1211.54 436.684 1229.38C441.05 1241.39 447.703 1254.02 457.77 1262.27C461.022 1266.25 460.718 1269.63 460.563 1274.62C460.545 1275.53 460.526 1276.43 460.508 1277.35C460.258 1284.26 459.119 1289.79 456 1296C455.51 1297.09 455.02 1298.18 454.516 1299.3C450.399 1308.22 445.316 1316.49 440.125 1324.81C419.558 1357.17 419.558 1357.17 417.766 1394.49C420.376 1402.31 424.235 1409.4 428.134 1416.64C438.934 1436.8 445.899 1458.79 453.176 1480.4C461.093 1503.89 469.236 1527.09 481 1549C481.322 1549.6 481.644 1550.21 481.975 1550.83C486.603 1559.46 491.909 1567.33 498 1575C499.081 1576.39 499.081 1576.39 500.184 1577.8C518.583 1600.96 537.42 1614.18 566.693 1618.55C567.721 1618.71 568.749 1618.87 569.809 1619.04C571.198 1619.24 571.198 1619.24 572.615 1619.45C575 1620 575 1620 578 1622C578.363 1624.31 578.363 1624.31 578.313 1627C578.309 1627.89 578.305 1628.77 578.301 1629.69C578 1632 578 1632 576 1634C551.067 1636.43 524.149 1626.96 504.813 1611.25C503.201 1609.84 501.595 1608.43 500 1607C498.92 1606.14 497.837 1605.29 496.75 1604.44C469.85 1580.59 458.203 1543.8 446.714 1511.04C438.179 1485.99 438.179 1485.99 428.063 1461.56C427.734 1460.84 427.405 1460.11 427.066 1459.36C424.743 1454.6 422.331 1451.9 418 1449C412.765 1447.72 407.519 1448.27 402.813 1450.94C393.868 1457.49 388.068 1467.01 382.167 1476.2C381.111 1477.83 380.032 1479.44 378.949 1481.06C369.717 1495 365.826 1510.54 365.813 1527.19C365.8 1527.96 365.788 1528.74 365.775 1529.53C365.706 1557.83 380.311 1584.36 393.661 1608.43C402.431 1624.26 410.152 1640.23 414 1658C414.174 1658.75 414.349 1659.49 414.528 1660.26C415.423 1665.46 415.226 1670.75 415.24 1676.02C415.25 1678.1 415.281 1680.18 415.313 1682.26C415.378 1690.31 414.65 1697.38 412 1705C411.749 1705.76 411.498 1706.52 411.239 1707.31C410.522 1709.45 409.769 1711.57 409 1713.69C408.753 1714.38 408.505 1715.08 408.25 1715.79C407.265 1718.54 406.275 1721.29 405.215 1724.02C404.83 1725.01 404.83 1725.01 404.438 1726.02C404.209 1726.59 403.981 1727.17 403.746 1727.76C401.546 1734.36 400.536 1740.87 399.816 1747.76C399.609 1749.62 399.401 1751.48 399.193 1753.34C398.875 1756.24 398.561 1759.14 398.253 1762.04C397.951 1764.87 397.634 1767.69 397.316 1770.51C397.229 1771.37 397.141 1772.23 397.051 1773.12C396.497 1777.95 395.71 1781.83 393 1786C388.685 1787.44 384.521 1787.26 380 1787.31C379.085 1787.34 378.17 1787.37 377.227 1787.4C376.347 1787.41 375.468 1787.42 374.563 1787.43C373.759 1787.44 372.956 1787.45 372.129 1787.47C370 1787 370 1787 368.244 1785.12C361.916 1774.32 370.233 1753.94 373.047 1742.82C374.341 1737.89 375.705 1732.99 377.148 1728.11C381.29 1713.92 384.222 1699.5 387 1685C387.151 1684.23 387.303 1683.46 387.459 1682.67C391.632 1660.82 391.431 1637.03 379 1618C375.938 1614.48 372.596 1611.31 369.188 1608.12C351.202 1590.68 339.35 1570.54 338.479 1545.03C338.241 1526.51 342.377 1509.81 350 1493C350.325 1492.26 350.651 1491.52 350.986 1490.76C358.568 1473.57 368.049 1457.33 378.213 1441.55C378.577 1440.98 378.94 1440.41 379.315 1439.82C380.323 1438.24 381.342 1436.66 382.362 1435.09C384.812 1430.47 385.685 1425.66 386.305 1420.5C386.463 1419.25 386.463 1419.25 386.624 1417.98C386.81 1416.5 386.81 1416.5 387 1415C391.67 1380.08 397.42 1346 422.68 1319.51C434.545 1306.67 439.668 1293.13 439.305 1275.91C439.034 1269.96 437.681 1265.31 435 1260C434.41 1258.76 433.822 1257.52 433.234 1256.28C430.092 1249.74 426.699 1243.42 423 1237.19C417.182 1227.16 412.045 1216.21 409.438 1204.88C407.638 1197.54 403.164 1192.14 396.875 1188.06C394.01 1186.45 391.117 1185.07 388 1184C388 1183.67 388 1183.34 388 1183C388.614 1183.02 389.228 1183.04 389.861 1183.06C392.699 1183.15 395.536 1183.2 398.375 1183.25C399.341 1183.28 400.306 1183.32 401.301 1183.35C411.752 1183.49 420.317 1180.12 428 1173C440.843 1160.01 447.34 1139.95 454.223 1123.49C456.068 1119.11 458.031 1114.85 460.224 1110.63C463.444 1104.37 464.701 1098.66 465.232 1091.73C465.842 1084.17 467.289 1076.86 468.813 1069.44C469.08 1068.13 469.348 1066.81 469.615 1065.5C470.829 1059.58 472.072 1053.66 473.328 1047.74C475.915 1035.4 477.978 1023.04 479.75 1010.56C479.857 1009.81 479.964 1009.06 480.074 1008.28C486.047 969.629 486.047 969.629 476.375 932.875C472.328 927.782 467.552 924.623 460.98 923.723C455.034 923.268 449.076 923.376 443.117 923.441C441.174 923.446 439.232 923.448 437.289 923.448C433.226 923.455 429.163 923.477 425.1 923.513C419.936 923.558 414.773 923.573 409.609 923.577C405.597 923.581 401.585 923.596 397.573 923.616C395.671 923.624 393.77 923.631 391.869 923.636C366.662 922.759 366.662 922.759 344.688 932.688C341.302 937.059 340.298 942.414 338.885 947.659C337.231 953.641 335.104 958.266 331 963C330.064 964.081 330.064 964.081 329.109 965.184C314.429 980.869 292.804 992.215 273 1000C272.34 1000 271.68 1000 271 1000C271.378 1000.42 271.755 1000.83 272.145 1001.26C293.544 1025.21 306.108 1049.9 306.141 1082.61C306.159 1084.83 306.179 1087.05 306.199 1089.28C306.228 1092.73 306.25 1096.18 306.251 1099.63C306.264 1112.94 306.427 1124.73 312 1137C312.661 1138.47 312.661 1138.47 313.336 1139.97C319.478 1152.31 327.796 1159.27 340.25 1164.81C341.388 1165.35 342.527 1165.88 343.699 1166.43C351.345 1169.96 359.105 1173.07 367 1176C363.857 1177 361.777 1176.96 358.578 1176.21C357.725 1176.02 356.872 1175.82 355.993 1175.62C355.088 1175.39 354.183 1175.17 353.25 1174.94C352.316 1174.71 351.381 1174.48 350.419 1174.25C338.157 1171.15 326.502 1167.22 316 1160C315.098 1159.39 314.195 1158.79 313.266 1158.16C294.496 1145.07 286.647 1129.09 282.613 1107.05C281.15 1097.9 280.812 1088.76 280.563 1079.5C279.564 1044.77 279.564 1044.77 263.258 1014.95C254.775 1007.63 245.513 1001.71 234.113 1001.73C232.532 1001.71 230.95 1001.69 229.369 1001.67C228.544 1001.67 227.718 1001.66 226.868 1001.65C187.677 1001.24 149.281 993.999 120 966C119.134 965.216 118.268 964.432 117.375 963.625C105.706 950.728 98.3543 935.665 98.6251 918.125C98.6367 917.156 98.6483 916.187 98.6602 915.189C99.2182 890.756 113.256 871.656 130.363 855.301C148.322 838.696 168.573 833.668 192.375 831C205.381 829.467 218.176 826.824 227.75 817.25C229.537 814.669 231.134 812.107 232.715 809.402C235.832 804.181 239.27 799.251 242.813 794.312C248.23 786.659 253.32 778.928 257.973 770.789C258.997 769.006 260.042 767.237 261.09 765.469C273.391 744.465 283.483 722.149 291 699C291.444 697.74 291.444 697.74 291.896 696.456C292.581 694.195 293.04 692.362 293 690C291.263 687.257 290.015 685.733 287.688 683.625C286.555 682.507 285.425 681.385 284.297 680.262C283.733 679.713 283.169 679.164 282.588 678.599C280.356 676.351 278.401 673.921 276.438 671.438C273.265 667.485 269.951 663.709 266.5 660C262.269 655.448 258.277 650.754 254.379 645.914C251.641 642.56 248.828 639.278 246 636C240.901 630.078 235.922 624.071 231 618C229.958 616.727 228.915 615.455 227.871 614.184C222.201 607.261 216.619 600.302 211.297 593.105C209.611 590.827 207.915 588.56 206.203 586.301C198.921 576.681 191.87 566.919 185 557C184.57 556.383 184.14 555.767 183.696 555.131C173.513 540.484 163.416 524.707 157 508C156.755 507.37 156.511 506.741 156.259 506.092C153.212 497.274 152.742 487.976 151.875 478.75C151.705 477.035 151.535 475.32 151.363 473.605C145.393 413.211 157.349 368.333 191.875 318.527C195.068 313.92 198.167 309.255 201.249 304.573C203.478 301.21 205.772 297.908 208.145 294.645C218.762 280.755 218.762 280.755 221 264C216.439 249.471 203.857 238.881 192.266 229.805C168.172 210.612 153.152 173.575 148.148 144.043C147.441 140.757 147.205 140.176 144.531 137.871C143.531 137.398 142.531 136.925 141.5 136.438C122.602 126.616 109.406 110.52 102.805 90.3477C97.4547 72.0771 99.4193 53.6672 105.773 35.8867C107.565 30.5736 108.321 25.092 109.129 19.5586C110.416 14.3009 112.496 11.0028 117 8C122.176 7.42491 122.176 7.42491 125 8C129.139 12.0324 130.216 15.1623 130.438 20.8125C130.408 30.2493 127.424 38.7516 124.684 47.7007C121.122 59.682 120.857 71.9014 124 84C124.292 85.2143 124.292 85.2143 124.59 86.4531C129.786 106.009 143.496 118.977 160.398 129.082C166.953 132.702 173.983 135.418 181 138C181.702 138.261 182.404 138.521 183.127 138.79C189.03 140.879 194.961 142.071 201.125 143.125C202.075 143.294 203.025 143.463 204.004 143.637C206.667 144.106 209.33 144.567 212 145C213.086 145.179 214.171 145.359 215.29 145.544C219.405 146.05 223.406 146.162 227.547 146.168C228.358 146.171 229.168 146.175 230.004 146.178C231.718 146.183 233.433 146.185 235.147 146.185C237.701 146.187 240.255 146.206 242.809 146.225C258.495 146.281 273.975 145.311 289.188 141.25C290.199 140.987 291.211 140.724 292.254 140.453C316.656 133.937 339.056 123.079 357 105C357.732 104.272 358.464 103.543 359.219 102.793C363.735 95.7116 363.35 86.3258 363.563 78.1758C363.599 77.0713 363.636 75.9669 363.674 74.8289C363.791 71.3236 363.897 67.8182 364 64.3125C365.396 17.3686 365.396 17.3686 372.414 8.14063C374 7 374 7 377.438 7C381.728 8.20438 382.639 9.29442 385 13C385.518 16.0449 385.518 16.0449 385.531 19.4688C385.539 20.7467 385.547 22.0246 385.555 23.3413C385.538 24.7276 385.52 26.1138 385.5 27.5C385.495 28.5646 385.495 28.5646 385.489 29.6507C385.431 39.7134 384.595 49.4256 383 59.375C381.253 70.3116 380.578 80.9491 380.563 92C380.557 92.7092 380.551 93.4184 380.545 94.1491C380.429 114.436 385.568 130.701 399 146C420.67 172.335 439.418 201.154 454 232C454.324 232.675 454.648 233.35 454.982 234.045C472.096 269.899 484.238 313.989 471 353C459.471 383.796 437.286 404.892 408 419C394.703 424.962 380.969 429.775 366.867 433.433C349.748 437.92 332.894 443.07 323.133 459.059C310.084 484.065 318.197 514.729 324.249 540.813C327.113 553.321 328.316 565.561 328.301 578.383C328.305 579.814 328.309 581.245 328.314 582.676C328.321 585.649 328.321 588.622 328.316 591.595C328.31 595.372 328.327 599.148 328.35 602.924C328.365 605.87 328.366 608.816 328.363 611.763C328.363 613.154 328.368 614.545 328.378 615.936C328.429 623.789 327.918 630.82 325.679 638.371C324.533 642.809 324.603 647.194 324.688 651.75C324.683 653.071 324.683 653.071 324.678 654.418C324.87 677.949 340.441 696.867 356 713C357.942 714.821 359.923 716.56 361.961 718.273C364.242 720.205 366.427 722.224 368.625 724.25C373.125 728.316 377.82 732.055 382.609 735.768C387.281 739.401 391.816 743.17 396.314 747.015C399.688 749.898 403.105 752.716 406.563 755.5C412.6 760.429 418.348 765.638 424 771C424.577 771.543 425.154 772.086 425.749 772.646C433.409 779.898 440.289 787.154 445.874 796.182C446.654 797.441 447.447 798.692 448.251 799.936C459.22 816.97 465.906 835.956 472.922 854.848C482.233 883.081 482.233 883.081 501 905C509.091 907.801 517.151 908.153 525.617 908.133C526.514 908.134 527.412 908.135 528.336 908.136C530.224 908.136 532.111 908.135 533.999 908.13C536.86 908.125 539.721 908.13 542.582 908.137C544.427 908.136 546.272 908.135 548.117 908.133C548.959 908.135 549.801 908.137 550.669 908.139C555.776 908.119 560.775 907.796 565.851 907.224C569.906 906.802 573.929 906.942 578 907Z" fill="#FCFBFB"/>
<path d="M585 0C585 297.66 585 595.32 585 902C584.01 901.34 583.02 900.68 582 900C578.949 899.717 578.949 899.717 575.438 899.812C574.435 899.822 574.435 899.822 573.412 899.832C569.327 899.893 565.265 900.09 561.188 900.363C552.259 900.956 543.331 901.17 534.384 901.232C532.941 901.244 531.499 901.261 530.056 901.283C506.937 901.626 506.937 901.626 500.899 896.065C498.938 893.513 497.505 890.845 496 888C495.299 886.839 494.595 885.68 493.887 884.523C487.293 873.299 482.921 861.233 478.438 849.062C478.111 848.177 477.785 847.292 477.449 846.38C476.962 845.059 476.962 845.059 476.466 843.711C465.897 815.042 453.11 790.366 432 768C430.962 766.898 430.962 766.898 429.902 765.773C425.544 761.28 420.855 757.328 415.977 753.41C412.834 750.866 409.76 748.253 406.688 745.625C402.252 741.842 397.734 738.195 393.125 734.625C385.498 728.703 378.232 722.394 371 716C370.047 715.161 369.095 714.322 368.113 713.457C365.72 711.328 363.352 709.175 361 707C360.01 706.091 360.01 706.091 359 705.164C348.624 695.248 340.749 684.124 335 671C334.63 670.187 334.26 669.373 333.879 668.535C330.267 658.116 331.061 645.878 334.266 635.508C338.208 622.045 336.296 605.912 335.352 592.074C335.08 587.752 334.984 583.468 335.039 579.137C335.057 577.596 335.057 577.596 335.076 576.024C335.107 574.053 335.152 572.083 335.213 570.112C335.342 561.973 334.002 554.253 332.449 546.303C331.993 543.967 331.551 541.628 331.113 539.288C330.055 533.657 328.979 528.029 327.901 522.402C327.441 519.995 326.982 517.587 326.523 515.18C326.385 514.46 326.246 513.74 326.104 512.998C323.336 498.451 320.376 479.461 328 466C328.413 465.22 328.825 464.44 329.25 463.637C336.724 451.003 349.27 445.399 362.911 441.877C364.908 441.37 366.906 440.865 368.903 440.36C399.259 432.64 428.543 420.388 451 398C452.299 396.708 452.299 396.708 453.625 395.391C454.409 394.602 455.193 393.813 456 393C456.562 392.435 457.124 391.871 457.703 391.289C475.527 372.115 483.488 344.505 483.25 318.812C483.242 317.719 483.234 316.625 483.225 315.498C482.471 260.42 454.055 207.396 422 164C420.929 162.532 420.929 162.532 419.836 161.035C416.038 155.89 412.115 150.899 408.042 145.97C395.045 130.224 387.609 116.132 387.562 95.4375C387.559 94.2024 387.555 92.9673 387.551 91.6948C387.682 80.5497 388.999 69.6587 390.5 58.625C392.746 42.1574 392.746 42.1574 393.5 25.5625C393.506 24.6951 393.512 23.8277 393.518 22.9341C393.388 16.5019 392.439 9.88302 388.176 4.84375C387.561 4.40031 386.946 3.95688 386.312 3.5C385.203 2.67331 384.098 1.84198 383 1C383 0.67 383 0.34 383 0C449.66 0 516.32 0 585 0Z" fill="#005D2E"/>
<path d="M201.415 33.2727L204.006 40.6193H204.108L206.699 33.2727H207.807L204.602 42H203.511L200.307 33.2727H201.415ZM211.08 42.1364C210.489 42.1364 209.97 41.9957 209.524 41.7145C209.081 41.4332 208.734 41.0398 208.484 40.5341C208.237 40.0284 208.114 39.4375 208.114 38.7614C208.114 38.0795 208.237 37.4844 208.484 36.9759C208.734 36.4673 209.081 36.0724 209.524 35.7912C209.97 35.5099 210.489 35.3693 211.08 35.3693C211.67 35.3693 212.188 35.5099 212.631 35.7912C213.077 36.0724 213.423 36.4673 213.67 36.9759C213.92 37.4844 214.045 38.0795 214.045 38.7614C214.045 39.4375 213.92 40.0284 213.67 40.5341C213.423 41.0398 213.077 41.4332 212.631 41.7145C212.188 41.9957 211.67 42.1364 211.08 42.1364ZM211.08 41.233C211.528 41.233 211.898 41.1179 212.188 40.8878C212.477 40.6577 212.692 40.3551 212.831 39.9801C212.97 39.6051 213.04 39.1989 213.04 38.7614C213.04 38.3239 212.97 37.9162 212.831 37.5384C212.692 37.1605 212.477 36.8551 212.188 36.6222C211.898 36.3892 211.528 36.2727 211.08 36.2727C210.631 36.2727 210.261 36.3892 209.972 36.6222C209.682 36.8551 209.467 37.1605 209.328 37.5384C209.189 37.9162 209.119 38.3239 209.119 38.7614C209.119 39.1989 209.189 39.6051 209.328 39.9801C209.467 40.3551 209.682 40.6577 209.972 40.8878C210.261 41.1179 210.631 41.233 211.08 41.233ZM218.325 42.1364C217.694 42.1364 217.15 41.9972 216.693 41.7188C216.238 41.4375 215.887 41.0455 215.64 40.5426C215.396 40.0369 215.274 39.4489 215.274 38.7784C215.274 38.108 215.396 37.517 215.64 37.0057C215.887 36.4915 216.231 36.0909 216.672 35.804C217.115 35.5142 217.632 35.3693 218.223 35.3693C218.564 35.3693 218.9 35.4261 219.233 35.5398C219.565 35.6534 219.868 35.8381 220.14 36.0938C220.413 36.3466 220.63 36.6818 220.792 37.0994C220.954 37.517 221.035 38.0312 221.035 38.642V39.0682H215.99V38.1989H220.012C220.012 37.8295 219.939 37.5 219.791 37.2102C219.646 36.9205 219.439 36.6918 219.169 36.5241C218.902 36.3565 218.586 36.2727 218.223 36.2727C217.822 36.2727 217.475 36.3722 217.183 36.571C216.893 36.767 216.67 37.0227 216.514 37.3381C216.358 37.6534 216.279 37.9915 216.279 38.3523V38.9318C216.279 39.4261 216.365 39.8452 216.535 40.1889C216.708 40.5298 216.949 40.7898 217.255 40.9688C217.562 41.1449 217.919 41.233 218.325 41.233C218.589 41.233 218.828 41.196 219.041 41.1222C219.257 41.0455 219.443 40.9318 219.599 40.7812C219.755 40.6278 219.876 40.4375 219.961 40.2102L220.933 40.483C220.831 40.8125 220.659 41.1023 220.417 41.3523C220.176 41.5994 219.877 41.7926 219.522 41.9318C219.167 42.0682 218.768 42.1364 218.325 42.1364ZM225.037 42.1364C224.491 42.1364 224.01 41.9986 223.592 41.723C223.174 41.4446 222.848 41.0526 222.612 40.5469C222.376 40.0384 222.258 39.4375 222.258 38.7443C222.258 38.0568 222.376 37.4602 222.612 36.9545C222.848 36.4489 223.176 36.0582 223.596 35.7827C224.017 35.5071 224.502 35.3693 225.054 35.3693C225.48 35.3693 225.816 35.4403 226.064 35.5824C226.314 35.7216 226.504 35.8807 226.635 36.0597C226.768 36.2358 226.872 36.3807 226.946 36.4943H227.031V33.2727H228.037V42H227.065V40.9943H226.946C226.872 41.1136 226.767 41.2642 226.63 41.446C226.494 41.625 226.299 41.7855 226.047 41.9276C225.794 42.0668 225.457 42.1364 225.037 42.1364ZM225.173 41.233C225.576 41.233 225.917 41.1278 226.196 40.9176C226.474 40.7045 226.686 40.4105 226.831 40.0355C226.975 39.6577 227.048 39.2216 227.048 38.7273C227.048 38.2386 226.977 37.8111 226.835 37.4446C226.693 37.0753 226.483 36.7884 226.204 36.5838C225.926 36.3764 225.582 36.2727 225.173 36.2727C224.747 36.2727 224.392 36.3821 224.108 36.6009C223.826 36.8168 223.615 37.1108 223.473 37.483C223.333 37.8523 223.264 38.267 223.264 38.7273C223.264 39.1932 223.335 39.6165 223.477 39.9972C223.622 40.375 223.835 40.6761 224.116 40.9006C224.4 41.1222 224.752 41.233 225.173 41.233ZM234.654 36.9205L233.751 37.1761C233.694 37.0256 233.61 36.8793 233.5 36.7372C233.392 36.5923 233.244 36.473 233.056 36.3793C232.869 36.2855 232.629 36.2386 232.336 36.2386C231.936 36.2386 231.602 36.331 231.335 36.5156C231.071 36.6974 230.939 36.929 230.939 37.2102C230.939 37.4602 231.029 37.6577 231.211 37.8026C231.393 37.9474 231.677 38.0682 232.064 38.1648L233.035 38.4034C233.62 38.5455 234.056 38.7628 234.343 39.0554C234.63 39.3452 234.774 39.7187 234.774 40.1761C234.774 40.5511 234.666 40.8864 234.45 41.1818C234.237 41.4773 233.939 41.7102 233.555 41.8807C233.172 42.0511 232.725 42.1364 232.217 42.1364C231.549 42.1364 230.997 41.9915 230.559 41.7017C230.122 41.4119 229.845 40.9886 229.728 40.4318L230.683 40.1932C230.774 40.5455 230.946 40.8097 231.199 40.9858C231.454 41.1619 231.788 41.25 232.2 41.25C232.669 41.25 233.041 41.1506 233.316 40.9517C233.595 40.75 233.734 40.5085 233.734 40.2273C233.734 40 233.654 39.8097 233.495 39.6562C233.336 39.5 233.092 39.3835 232.762 39.3068L231.672 39.0511C231.072 38.9091 230.632 38.6889 230.35 38.3906C230.072 38.0895 229.933 37.7131 229.933 37.2614C229.933 36.892 230.037 36.5653 230.244 36.2812C230.454 35.9972 230.74 35.7741 231.1 35.6122C231.464 35.4503 231.876 35.3693 232.336 35.3693C232.984 35.3693 233.493 35.5114 233.862 35.7955C234.234 36.0795 234.498 36.4545 234.654 36.9205ZM239.032 42.1364C238.401 42.1364 237.857 41.9972 237.4 41.7188C236.945 41.4375 236.594 41.0455 236.347 40.5426C236.103 40.0369 235.981 39.4489 235.981 38.7784C235.981 38.108 236.103 37.517 236.347 37.0057C236.594 36.4915 236.938 36.0909 237.379 35.804C237.822 35.5142 238.339 35.3693 238.93 35.3693C239.271 35.3693 239.607 35.4261 239.94 35.5398C240.272 35.6534 240.575 35.8381 240.847 36.0938C241.12 36.3466 241.337 36.6818 241.499 37.0994C241.661 37.517 241.742 38.0312 241.742 38.642V39.0682H236.697V38.1989H240.719C240.719 37.8295 240.646 37.5 240.498 37.2102C240.353 36.9205 240.146 36.6918 239.876 36.5241C239.609 36.3565 239.293 36.2727 238.93 36.2727C238.529 36.2727 238.183 36.3722 237.89 36.571C237.6 36.767 237.377 37.0227 237.221 37.3381C237.065 37.6534 236.987 37.9915 236.987 38.3523V38.9318C236.987 39.4261 237.072 39.8452 237.242 40.1889C237.415 40.5298 237.656 40.7898 237.962 40.9688C238.269 41.1449 238.626 41.233 239.032 41.233C239.296 41.233 239.535 41.196 239.748 41.1222C239.964 41.0455 240.15 40.9318 240.306 40.7812C240.462 40.6278 240.583 40.4375 240.668 40.2102L241.64 40.483C241.538 40.8125 241.366 41.1023 241.124 41.3523C240.883 41.5994 240.585 41.7926 240.229 41.9318C239.874 42.0682 239.475 42.1364 239.032 42.1364ZM244.278 33.2727V42H243.272V33.2727H244.278ZM248.864 42.1364C248.233 42.1364 247.689 41.9972 247.232 41.7188C246.777 41.4375 246.426 41.0455 246.179 40.5426C245.935 40.0369 245.813 39.4489 245.813 38.7784C245.813 38.108 245.935 37.517 246.179 37.0057C246.426 36.4915 246.77 36.0909 247.211 35.804C247.654 35.5142 248.171 35.3693 248.762 35.3693C249.103 35.3693 249.439 35.4261 249.772 35.5398C250.104 35.6534 250.407 35.8381 250.679 36.0938C250.952 36.3466 251.169 36.6818 251.331 37.0994C251.493 37.517 251.574 38.0312 251.574 38.642V39.0682H246.529V38.1989H250.551C250.551 37.8295 250.478 37.5 250.33 37.2102C250.185 36.9205 249.978 36.6918 249.708 36.5241C249.441 36.3565 249.125 36.2727 248.762 36.2727C248.361 36.2727 248.015 36.3722 247.722 36.571C247.432 36.767 247.209 37.0227 247.053 37.3381C246.897 37.6534 246.819 37.9915 246.819 38.3523V38.9318C246.819 39.4261 246.904 39.8452 247.074 40.1889C247.248 40.5298 247.488 40.7898 247.794 40.9688C248.101 41.1449 248.458 41.233 248.864 41.233C249.128 41.233 249.367 41.196 249.58 41.1222C249.796 41.0455 249.982 40.9318 250.138 40.7812C250.294 40.6278 250.415 40.4375 250.5 40.2102L251.472 40.483C251.37 40.8125 251.198 41.1023 250.956 41.3523C250.715 41.5994 250.417 41.7926 250.061 41.9318C249.706 42.0682 249.307 42.1364 248.864 42.1364ZM253.104 42V35.4545H254.11V42H253.104ZM253.615 34.3636C253.419 34.3636 253.25 34.2969 253.108 34.1634C252.969 34.0298 252.9 33.8693 252.9 33.6818C252.9 33.4943 252.969 33.3338 253.108 33.2003C253.25 33.0668 253.419 33 253.615 33C253.811 33 253.979 33.0668 254.118 33.2003C254.26 33.3338 254.331 33.4943 254.331 33.6818C254.331 33.8693 254.26 34.0298 254.118 34.1634C253.979 34.2969 253.811 34.3636 253.615 34.3636ZM256.957 33.2727V42H255.952V33.2727H256.957ZM260.725 42.1534C260.311 42.1534 259.934 42.0753 259.596 41.919C259.258 41.7599 258.99 41.5312 258.791 41.233C258.592 40.9318 258.493 40.5682 258.493 40.142C258.493 39.767 258.566 39.4631 258.714 39.2301C258.862 38.9943 259.059 38.8097 259.306 38.6761C259.554 38.5426 259.826 38.4432 260.125 38.3778C260.426 38.3097 260.728 38.2557 261.032 38.2159C261.43 38.1648 261.752 38.1264 262 38.1009C262.25 38.0724 262.431 38.0256 262.545 37.9602C262.662 37.8949 262.72 37.7812 262.72 37.6193V37.5852C262.72 37.1648 262.605 36.8381 262.375 36.6051C262.147 36.3722 261.802 36.2557 261.339 36.2557C260.859 36.2557 260.483 36.3608 260.21 36.571C259.937 36.7812 259.745 37.0057 259.635 37.2443L258.68 36.9034C258.85 36.5057 259.078 36.196 259.362 35.9744C259.649 35.75 259.961 35.5937 260.299 35.5057C260.64 35.4148 260.975 35.3693 261.305 35.3693C261.515 35.3693 261.757 35.3949 262.029 35.446C262.305 35.4943 262.571 35.5952 262.826 35.7486C263.085 35.902 263.299 36.1335 263.47 36.4432C263.64 36.7528 263.725 37.1676 263.725 37.6875V42H262.72V41.1136H262.669C262.6 41.2557 262.487 41.4077 262.328 41.5696C262.169 41.7315 261.957 41.8693 261.693 41.983C261.429 42.0966 261.106 42.1534 260.725 42.1534ZM260.879 41.25C261.277 41.25 261.612 41.1719 261.885 41.0156C262.16 40.8594 262.368 40.6577 262.507 40.4105C262.649 40.1634 262.72 39.9034 262.72 39.6307V38.7102C262.677 38.7614 262.583 38.8082 262.439 38.8509C262.297 38.8906 262.132 38.9261 261.944 38.9574C261.76 38.9858 261.579 39.0114 261.403 39.0341C261.23 39.054 261.089 39.071 260.981 39.0852C260.72 39.1193 260.475 39.1747 260.248 39.2514C260.024 39.3253 259.842 39.4375 259.703 39.5881C259.566 39.7358 259.498 39.9375 259.498 40.1932C259.498 40.5426 259.627 40.8068 259.886 40.9858C260.147 41.1619 260.478 41.25 260.879 41.25ZM266.567 38.0625V42H265.561V35.4545H266.533V36.4773H266.618C266.771 36.1449 267.004 35.8778 267.317 35.6761C267.629 35.4716 268.033 35.3693 268.527 35.3693C268.97 35.3693 269.358 35.4602 269.69 35.642C270.023 35.821 270.281 36.0938 270.466 36.4602C270.651 36.8239 270.743 37.2841 270.743 37.8409V42H269.737V37.9091C269.737 37.3949 269.604 36.9943 269.337 36.7074C269.07 36.4176 268.703 36.2727 268.237 36.2727C267.916 36.2727 267.629 36.3423 267.376 36.4815C267.126 36.6207 266.929 36.8239 266.784 37.0909C266.639 37.358 266.567 37.6818 266.567 38.0625ZM275.052 42.1364C274.507 42.1364 274.025 41.9986 273.608 41.723C273.19 41.4446 272.863 41.0526 272.627 40.5469C272.392 40.0384 272.274 39.4375 272.274 38.7443C272.274 38.0568 272.392 37.4602 272.627 36.9545C272.863 36.4489 273.191 36.0582 273.612 35.7827C274.032 35.5071 274.518 35.3693 275.069 35.3693C275.495 35.3693 275.832 35.4403 276.079 35.5824C276.329 35.7216 276.52 35.8807 276.65 36.0597C276.784 36.2358 276.887 36.3807 276.961 36.4943H277.047V33.2727H278.052V42H277.081V40.9943H276.961C276.887 41.1136 276.782 41.2642 276.646 41.446C276.51 41.625 276.315 41.7855 276.062 41.9276C275.809 42.0668 275.473 42.1364 275.052 42.1364ZM275.189 41.233C275.592 41.233 275.933 41.1278 276.211 40.9176C276.49 40.7045 276.701 40.4105 276.846 40.0355C276.991 39.6577 277.064 39.2216 277.064 38.7273C277.064 38.2386 276.993 37.8111 276.85 37.4446C276.708 37.0753 276.498 36.7884 276.22 36.5838C275.941 36.3764 275.598 36.2727 275.189 36.2727C274.762 36.2727 274.407 36.3821 274.123 36.6009C273.842 36.8168 273.63 37.1108 273.488 37.483C273.349 37.8523 273.279 38.267 273.279 38.7273C273.279 39.1932 273.35 39.6165 273.493 39.9972C273.637 40.375 273.85 40.6761 274.132 40.9006C274.416 41.1222 274.768 41.233 275.189 41.233ZM286.341 42.1193C285.778 42.1193 285.277 42.0227 284.836 41.8295C284.399 41.6364 284.051 41.3679 283.792 41.0241C283.537 40.6776 283.397 40.2756 283.375 39.8182H284.449C284.471 40.0994 284.568 40.3423 284.738 40.5469C284.909 40.7486 285.132 40.9048 285.407 41.0156C285.683 41.1264 285.988 41.1818 286.324 41.1818C286.699 41.1818 287.031 41.1165 287.321 40.9858C287.61 40.8551 287.838 40.6733 288.002 40.4403C288.167 40.2074 288.25 39.9375 288.25 39.6307C288.25 39.3097 288.17 39.027 288.011 38.7827C287.852 38.5355 287.619 38.3423 287.312 38.2031C287.005 38.0639 286.63 37.9943 286.187 37.9943H285.488V37.0568H286.187C286.534 37.0568 286.838 36.9943 287.099 36.8693C287.363 36.7443 287.569 36.5682 287.717 36.3409C287.868 36.1136 287.943 35.8466 287.943 35.5398C287.943 35.2443 287.877 34.9872 287.747 34.7685C287.616 34.5497 287.431 34.3793 287.193 34.2571C286.957 34.1349 286.679 34.0739 286.358 34.0739C286.056 34.0739 285.772 34.1293 285.505 34.2401C285.241 34.348 285.025 34.5057 284.858 34.7131C284.69 34.9176 284.599 35.1648 284.585 35.4545H283.562C283.579 34.9972 283.717 34.5966 283.975 34.2528C284.234 33.9062 284.572 33.6364 284.99 33.4432C285.41 33.25 285.872 33.1534 286.375 33.1534C286.914 33.1534 287.377 33.2628 287.764 33.4815C288.15 33.6974 288.447 33.983 288.654 34.3381C288.862 34.6932 288.966 35.0767 288.966 35.4886C288.966 35.9801 288.836 36.3991 288.578 36.7457C288.322 37.0923 287.974 37.3324 287.534 37.4659V37.5341C288.085 37.625 288.515 37.8594 288.825 38.2372C289.135 38.6122 289.289 39.0767 289.289 39.6307C289.289 40.1051 289.16 40.5312 288.902 40.9091C288.646 41.2841 288.297 41.5795 287.853 41.7955C287.41 42.0114 286.906 42.1193 286.341 42.1193Z" fill="white"/>
<path d="M458.187 318.5C458.174 320.206 458.174 320.206 458.161 321.945C457.855 351.081 457.855 351.081 454 360C453.634 360.865 453.268 361.73 452.891 362.621C438.246 392.987 397.816 403.961 368.613 414.44C327.908 427.211 327.908 427.212 297.363 454.754C293.236 464.58 296.174 476.146 298.922 486.004C300.564 491.906 301.575 497.924 302.637 503.953C303.008 506.045 303.393 508.134 303.781 510.223C305.286 518.408 306.547 526.581 307.497 534.849C307.793 537.374 308.133 539.873 308.518 542.388C310.377 554.984 310.353 567.538 310.312 580.25C310.311 581.405 310.309 582.559 310.308 583.748C310.268 601.046 309.654 617.886 307 635C306.751 636.702 306.751 636.702 306.497 638.439C303.477 659.107 303.477 659.107 301 667C297.481 664.343 294.723 661.649 292 658.188C288.322 653.601 284.55 649.12 280.687 644.688C279.569 643.402 278.45 642.117 277.332 640.832C276.5 639.876 276.5 639.876 275.651 638.901C268.749 630.954 261.933 622.933 255.142 614.892C250.296 609.158 245.407 603.462 240.516 597.766C238.009 594.846 235.505 591.923 233 589C232 587.833 231 586.667 230 585.5C224 578.5 224 578.5 222.499 576.749C221.502 575.586 220.504 574.422 219.507 573.259C216.965 570.296 214.427 567.33 211.894 564.359C207.425 559.122 202.947 553.906 198.312 548.813C195.248 545.445 192.349 541.99 189.5 538.438C186.611 534.853 183.628 531.569 180.312 528.375C166.95 515.199 165.123 498.864 163 481C162.894 480.149 162.788 479.298 162.679 478.421C159.873 455.415 160.36 434.381 165.551 411.742C166.836 406.055 167.616 400.494 168.062 394.688C171.18 357.728 197.657 322.64 218.547 293.434C225.416 283.781 231.556 274.325 230 262C226.01 247.525 217.753 239.382 206.52 230.249C203.88 228.08 201.335 225.805 198.781 223.535C197.423 222.364 196.012 221.254 194.582 220.172C185.221 212.298 179.229 200.848 174 190C173.57 189.114 173.141 188.227 172.698 187.314C156 152.571 156 152.571 156 144C156.62 144.17 157.24 144.34 157.879 144.516C159.807 145.043 161.737 145.565 163.668 146.082C165.805 146.671 167.934 147.291 170.051 147.949C213.087 160.744 260.223 155.878 303.259 145.647C305.985 145.004 308.714 144.375 311.444 143.751C314.126 143.137 316.806 142.52 319.486 141.902C321.447 141.45 323.408 141 325.37 140.55C330.804 139.286 336.178 137.992 341.5 136.313C349.917 133.711 358.511 133.887 366.551 137.629C381.142 145.797 392.579 158.376 402 172C402.392 172.559 402.785 173.118 403.189 173.693C413.625 188.594 422.149 204.614 430 221C430.343 221.707 430.687 222.414 431.041 223.142C442.23 246.322 450.533 270.865 456 296C456.194 296.807 456.387 297.614 456.587 298.445C458.111 305.164 458.271 311.628 458.187 318.5Z" fill="#005D2E"/>
<path d="M585 922C585 1151.02 585 1380.04 585 1616C580.71 1614.68 576.42 1613.36 572 1612C568.79 1611.42 565.663 1610.91 562.438 1610.5C543.302 1607.71 531.726 1599.12 518 1586C517.132 1585.19 516.265 1584.37 515.371 1583.53C505.136 1573.66 496.958 1562.37 490 1550C489.554 1549.21 489.108 1548.42 488.648 1547.6C475.692 1524.35 467.491 1499.65 459.015 1474.52C451.804 1453.16 444.508 1431.9 433.982 1411.91C432.088 1408.23 430.328 1404.49 428.562 1400.75C428.22 1400.03 427.878 1399.32 427.525 1398.58C422.21 1387.31 423.077 1375.7 427 1364C429.301 1358.48 432.137 1353.24 435 1348C435.359 1347.34 435.718 1346.67 436.088 1345.99C440.163 1338.47 444.484 1331.15 449.062 1323.94C459.823 1306.98 470.425 1288.83 468 1268C466.453 1261.81 463.476 1257.73 459.188 1253.12C447.325 1239.8 440.298 1224.37 440.691 1206.25C442.697 1185.1 455.088 1165.56 465.098 1147.36C465.884 1145.93 465.884 1145.93 466.687 1144.47C467.691 1142.64 468.7 1140.82 469.714 1139C476.697 1126.35 481.881 1113.34 486.5 1099.69C486.784 1098.85 487.069 1098.02 487.362 1097.15C494.252 1076.84 499.225 1056.57 502.614 1035.39C503.104 1032.36 503.649 1029.34 504.188 1026.31C505.794 1016.43 506.152 1006.54 506.133 996.543C506.134 995.397 506.135 994.251 506.136 993.07C506.136 990.663 506.135 988.255 506.13 985.847C506.125 982.207 506.13 978.568 506.137 974.928C506.141 958.805 506.141 958.805 505.001 942.734C505 939.72 505.516 938.288 507.188 935.812C518.362 925.771 537.942 926.839 551.958 926.392C559.142 926.15 566.282 925.753 573.438 925.062C574.265 924.988 575.093 924.913 575.946 924.836C579.667 924.45 581.835 924.11 585 922Z" fill="#005D2E"/>
<path d="M213.234 1271.38C213.229 1272.66 213.229 1272.66 213.224 1273.97C213.063 1287 211.953 1300 210.981 1312.98C210.694 1316.84 210.415 1320.7 210.136 1324.55C210.02 1326.15 209.905 1327.74 209.789 1329.33C209.731 1330.13 209.674 1330.93 209.614 1331.75C209.437 1334.19 209.258 1336.63 209.079 1339.07C208.287 1349.92 207.528 1360.76 206.794 1371.61C206.626 1374.09 206.458 1376.57 206.289 1379.04C205.642 1388.56 205.642 1388.56 205.003 1398.07C204.757 1401.76 204.507 1405.44 204.254 1409.12C204.12 1411.09 203.99 1413.06 203.861 1415.02C200.25 1467.21 182.158 1506.31 142.844 1541.54C139.313 1544.6 135.729 1547.57 132.09 1550.5C129.754 1552.39 127.436 1554.29 125.129 1556.21C115.28 1564.41 105.265 1572.33 95.0001 1580C94.3907 1580.46 93.7813 1580.92 93.1534 1581.39C63.5603 1603.59 37.4994 1611 7.62939e-05 1611C7.62939e-05 1467.78 7.62939e-05 1324.56 7.62939e-05 1177C3.30008 1177.99 6.60008 1178.98 10.0001 1180C12.3404 1180.67 14.6808 1181.33 17.023 1181.99C29.3453 1185.46 41.5713 1189.22 53.7984 1193.01C58.757 1194.54 63.7218 1196.05 68.6876 1197.56C69.6246 1197.85 70.5616 1198.13 71.5269 1198.43C73.4091 1199 75.2912 1199.57 77.1734 1200.14C81.9495 1201.59 86.7247 1203.05 91.5001 1204.5C93.4167 1205.08 95.3334 1205.67 97.2501 1206.25C101.083 1207.42 104.917 1208.58 108.75 1209.75C109.698 1210.04 110.647 1210.33 111.624 1210.62C113.545 1211.21 115.467 1211.79 117.388 1212.38C122.104 1213.82 126.821 1215.25 131.539 1216.68C135.302 1217.82 139.064 1218.97 142.824 1220.12C147.322 1221.49 151.826 1222.85 156.332 1224.2C192.64 1235.14 192.64 1235.14 202 1244C202.934 1244.87 202.934 1244.87 203.887 1245.77C211.147 1253.25 213.299 1261.07 213.234 1271.38Z" fill="#AD7949"/>
<path d="M476.078 965.127C477.179 997.067 469.74 1029.01 463.375 1060.12C462.399 1064.9 461.428 1069.67 460.461 1074.45C460.23 1075.58 459.999 1076.71 459.76 1077.87C458.645 1083.41 457.73 1088.85 457.172 1094.47C455.969 1103.7 451.685 1111.98 447.875 1120.37C447.132 1122.05 446.389 1123.73 445.649 1125.41C442.146 1133.31 438.511 1141.14 434.664 1148.88C434.346 1149.52 434.028 1150.16 433.701 1150.82C428.824 1160.49 422.586 1170.19 412.438 1174.94C402.225 1178.17 390.949 1176.14 381 1173C379.863 1172.66 378.726 1172.32 377.555 1171.97C368.136 1169.01 359.183 1165.22 350.243 1161.04C348.045 1160.02 345.833 1159.04 343.617 1158.06C331.449 1152.53 324.332 1145.57 318.289 1133.45C314.934 1124.48 313.56 1115.89 313.559 1106.35C313.546 1105.29 313.532 1104.22 313.519 1103.13C313.478 1099.77 313.456 1096.42 313.438 1093.06C313.491 1073.92 313.491 1073.92 311 1055C310.82 1054.02 310.639 1053.05 310.453 1052.04C307.327 1035.87 298.011 1021.6 288.186 1008.71C286.919 1006.88 285.95 1005.01 285 1003C285.89 1002.53 285.89 1002.53 286.798 1002.04C323.966 983.273 323.966 983.273 346.274 949.914C346.92 947.764 347.549 945.615 348.126 943.445C348.96 940.491 349.662 938.345 351.832 936.129C358.765 932.519 366.581 931.799 374.281 931.427C375.063 931.386 375.845 931.346 376.651 931.305C385.229 930.894 393.804 930.817 402.391 930.797C403.216 930.794 404.042 930.791 404.892 930.788C409.237 930.773 413.582 930.764 417.927 930.76C422.392 930.754 426.856 930.73 431.321 930.702C434.786 930.683 438.25 930.678 441.714 930.676C443.361 930.673 445.009 930.665 446.656 930.652C448.95 930.635 451.243 930.637 453.536 930.643C454.837 930.64 456.137 930.636 457.477 930.632C462.3 931.135 465.605 932.686 469.125 936C474.906 945.249 475.687 954.474 476.078 965.127Z" fill="#005D2E"/>
<path d="M370 0C368.02 2.64 366.04 5.28 364 8C355.572 25.7298 356.6 48.1304 356.251 67.325C356.125 73.9832 355.956 80.6399 355.66 87.293C355.639 87.9997 355.617 88.7064 355.595 89.4345C355.325 94.7485 354.043 97.7 350.137 101.25C349.432 101.827 348.726 102.405 348 103C347.264 103.722 346.528 104.444 345.77 105.188C318.811 131.222 277.351 139.215 241.25 139.25C240.427 139.251 239.603 139.253 238.755 139.254C225.969 139.25 213.543 138.692 201 136C199.976 135.783 198.953 135.567 197.898 135.344C195.212 134.678 192.625 133.878 190 133C189.388 132.806 188.775 132.611 188.145 132.411C167.128 125.716 146.663 115.492 136.059 95.082C135.709 94.395 135.36 93.7079 135 93C134.443 92.0306 133.886 91.0612 133.312 90.0625C125.129 70.9666 130.773 49.6819 137 31C137.301 27.9429 137.323 24.8827 137.375 21.8125C137.412 20.9869 137.45 20.1612 137.488 19.3105C137.577 13.0483 136.151 8.75127 132 4C130.35 2.68 128.7 1.36 127 0C207.19 0 287.38 0 370 0Z" fill="#005D2E"/>
<path d="M475 907C473.076 907.038 473.076 907.038 471.113 907.078C457.515 907.451 444.058 908.494 430.522 909.782C365.08 915.978 365.08 915.978 348.063 902.461C343.529 897.696 340.429 891.81 337.043 886.213C332.542 878.953 327.051 872.986 321 867C319.854 865.82 319.854 865.82 318.684 864.617C301.28 847.728 278.849 839.4 256 833C254.637 832.611 253.273 832.222 251.91 831.832C250.47 831.42 250.47 831.42 249 831C249.588 827.653 250.411 824.706 251.75 821.586C252.106 820.752 252.463 819.919 252.83 819.061C253.216 818.174 253.602 817.288 254 816.375C254.606 814.979 254.606 814.979 255.224 813.554C262.211 797.554 269.952 782.154 278.413 766.884C280.016 763.97 281.594 761.045 283.164 758.113C311.771 704.71 311.771 704.71 319 701C322.832 700.292 326.355 700.124 329.862 701.992C331.648 703.381 333.257 704.855 334.875 706.437C336.092 707.554 337.309 708.67 338.528 709.785C339.118 710.337 339.708 710.889 340.316 711.457C342.599 713.548 345.007 715.459 347.438 717.375C353.421 722.225 358.974 727.508 364.574 732.789C367.007 735.079 369.465 737.323 372 739.5C376.528 743.397 380.858 747.507 385.215 751.592C389.262 755.384 393.335 759.143 397.438 762.875C401.454 766.541 405.332 770.3 409.145 774.176C411.014 776.014 412.949 777.73 414.938 779.437C423.772 787.131 430.323 794.698 436 805C436.437 805.786 436.874 806.572 437.324 807.382C452.445 834.836 464.602 864.262 473.125 894.437C473.326 895.146 473.526 895.856 473.732 896.586C474.677 900.132 475.212 903.329 475 907Z" fill="#005D2E"/>
<path d="M458.187 318.5C458.174 320.206 458.174 320.206 458.161 321.945C457.855 351.081 457.855 351.081 454 360C453.634 360.865 453.268 361.73 452.891 362.621C438.246 392.987 397.816 403.961 368.613 414.44C327.908 427.211 327.908 427.212 297.363 454.754C293.236 464.58 296.174 476.146 298.922 486.004C300.564 491.906 301.575 497.924 302.637 503.953C303.008 506.045 303.393 508.134 303.781 510.223C305.286 518.408 306.547 526.581 307.497 534.849C307.793 537.374 308.133 539.873 308.518 542.388C310.377 554.984 310.353 567.538 310.312 580.25C310.311 581.405 310.309 582.559 310.308 583.748C310.268 601.046 309.654 617.886 307 635C306.751 636.702 306.751 636.702 306.497 638.439C303.477 659.107 303.477 659.107 301 667C297.481 664.343 294.723 661.649 292 658.188C288.322 653.601 284.55 649.12 280.687 644.688C279.569 643.402 278.45 642.117 277.332 640.832C276.5 639.876 276.5 639.876 275.651 638.901C268.749 630.954 261.933 622.933 255.142 614.892C250.296 609.158 245.407 603.462 240.516 597.766C238.009 594.846 235.505 591.923 233 589C232 587.833 231 586.667 230 585.5C224 578.5 224 578.5 222.499 576.749C221.502 575.586 220.504 574.422 219.507 573.259C216.965 570.296 214.427 567.33 211.894 564.359C207.425 559.122 202.947 553.906 198.312 548.813C195.248 545.445 192.349 541.99 189.5 538.438C186.611 534.853 183.628 531.569 180.312 528.375C166.95 515.199 165.123 498.864 163 481C162.894 480.149 162.788 479.298 162.679 478.421C159.873 455.415 160.36 434.381 165.551 411.742C166.836 406.055 167.616 400.494 168.062 394.688C171.18 357.728 197.657 322.64 218.547 293.434C225.416 283.781 231.556 274.325 230 262C226.01 247.525 217.753 239.382 206.52 230.249C203.88 228.08 201.335 225.805 198.781 223.535C197.423 222.364 196.012 221.254 194.582 220.172C185.221 212.298 179.229 200.848 174 190C173.57 189.114 173.141 188.227 172.698 187.314C156 152.571 156 152.571 156 144C156.62 144.17 157.24 144.34 157.879 144.516C159.807 145.043 161.737 145.565 163.668 146.082C165.805 146.671 167.934 147.291 170.051 147.949C213.087 160.744 260.223 155.878 303.259 145.647C305.985 145.004 308.714 144.375 311.444 143.751C314.126 143.137 316.806 142.52 319.486 141.902C321.447 141.45 323.408 141 325.37 140.55C330.804 139.286 336.178 137.992 341.5 136.313C349.917 133.711 358.511 133.887 366.551 137.629C381.142 145.797 392.579 158.376 402 172C402.392 172.559 402.785 173.118 403.189 173.693C413.625 188.594 422.149 204.614 430 221C430.343 221.707 430.687 222.414 431.041 223.142C442.23 246.322 450.533 270.865 456 296C456.194 296.807 456.387 297.614 456.587 298.445C458.111 305.164 458.271 311.628 458.187 318.5ZM447 294C446.756 292.8 446.513 291.6 446.262 290.363C435.387 242.692 410.563 177.361 368.66 148.66C361.822 144.393 356.133 141.87 348 143C345.849 143.57 343.709 144.181 341.578 144.82C334.413 146.911 327.21 148.699 319.937 150.375C318.983 150.596 318.983 150.596 318.009 150.821C308.378 153.043 298.731 155.195 289.062 157.25C287.989 157.484 286.916 157.718 285.81 157.959C266.764 161.925 247.811 163.579 228.375 163.5C227.341 163.5 226.306 163.501 225.241 163.501C208.871 163.476 193.42 162.202 177.44 158.551C174.643 157.919 171.836 157.427 169 157C171.188 164.106 174.05 170.638 177.312 177.313C178.054 178.838 178.054 178.838 178.81 180.394C179.779 182.386 180.751 184.377 181.724 186.368C182.755 188.494 183.759 190.627 184.738 192.777C191.557 207.396 203.352 217.688 215.687 227.625C224.172 234.518 230.839 240.738 235 251C235.318 251.718 235.637 252.436 235.965 253.176C239.614 262.375 239.065 272.53 235.545 281.683C233.832 285.36 231.74 288.636 229.453 291.969C229.013 292.619 228.574 293.27 228.12 293.94C226.751 295.963 225.376 297.982 224 300C222.354 302.428 220.712 304.859 219.07 307.289C218.465 308.184 218.465 308.184 217.848 309.098C208.634 322.746 199.744 336.447 192 351C191.609 351.734 191.218 352.468 190.815 353.224C183.785 366.548 177.639 380.047 176.187 395.188C175.628 400.696 174.824 406.1 173.762 411.535C170.388 428.907 169.221 445.325 170 463C170.051 464.19 170.101 465.38 170.154 466.606C170.76 495.833 170.76 495.833 184.312 520.5C188.477 524.482 192.268 528.614 196 533C197.957 535.293 199.916 537.584 201.875 539.875C202.395 540.484 202.914 541.092 203.45 541.719C206.479 545.256 209.551 548.744 212.687 552.188C216.538 556.427 220.148 560.829 223.75 565.281C225.935 567.922 228.192 570.467 230.5 573C234.419 577.3 238.092 581.759 241.75 586.281C243.935 588.922 246.192 591.467 248.5 594C251.523 597.32 254.425 600.698 257.25 604.188C260.855 608.639 264.554 612.992 268.312 617.313C268.863 617.945 269.413 618.578 269.98 619.23C271.099 620.516 272.217 621.801 273.336 623.086C280.729 631.59 288.049 640.127 295 649C297.314 646.686 297.362 645.918 297.781 642.766C297.9 641.894 298.019 641.023 298.141 640.126C298.319 638.702 298.319 638.702 298.5 637.25C298.627 636.253 298.753 635.257 298.884 634.23C299.143 632.152 299.396 630.073 299.643 627.993C299.863 626.145 300.091 624.298 300.33 622.452C305.41 582.795 302.547 540.79 293.654 501.893C292.951 498.784 292.292 495.667 291.641 492.547C291.199 490.448 290.756 488.349 290.312 486.25C290.11 485.29 289.908 484.331 289.699 483.342C288.77 479.06 287.842 475.003 286 471C283.847 473.8 281.857 476.686 279.891 479.62C276.06 485.304 272.091 490.384 267 495C265.995 495.995 264.994 496.994 264 498C264.75 498.014 265.5 498.028 266.273 498.043C274.617 498.432 281.606 499.925 287.883 505.746C293.774 512.364 294.376 517.29 294 526C293.733 530.111 293.374 534.21 293 538.313C290.785 552.971 290.785 552.971 293 567C294.299 579.21 293.629 588.936 285.84 598.711C277.654 608.249 277.654 608.249 271.719 609.469C270.62 609.484 270.62 609.484 269.5 609.5C268.768 609.531 268.036 609.562 267.281 609.594C262.789 608.425 260.476 604.702 257.973 601.012C250.012 587.159 245.057 572.418 241 557C240.812 556.303 240.625 555.607 240.431 554.889C236.928 540.779 236.963 523.96 244 511C246.211 507.729 248.39 504.805 252 503C252 502.34 252 501.68 252 501C251.051 500.773 250.102 500.546 249.125 500.313C246 499 246 499 244.945 496.793C244.633 495.871 244.321 494.95 244 494C243.644 493.072 243.288 492.144 242.922 491.188C233.577 465.77 228.643 440.795 228.625 413.688C228.623 412.902 228.621 412.117 228.619 411.308C228.624 391.941 230.945 370.757 244.945 355.941C253.163 348.427 260.772 346.612 271.715 346.723C279.502 347.38 286.413 351.656 292 357C296.691 363.134 298.18 368.168 298.187 375.875C298.2 376.583 298.212 377.29 298.225 378.02C298.233 380.967 298.205 383.491 297.093 386.245C295.708 389.736 294.992 393.285 294.273 396.957C294.12 397.73 293.968 398.502 293.81 399.298C293.322 401.801 292.846 404.306 292.375 406.813C292.214 407.661 292.053 408.51 291.888 409.384C289.269 423.411 288.101 436.708 289 451C291.761 447.561 291.761 447.561 294.465 444.078C312.046 422.254 345.618 414.028 370.806 404.851C391.741 397.237 391.741 397.237 412 388C412.963 387.519 412.963 387.519 413.945 387.027C427.296 380.23 439.114 371.603 446 358C446.376 357.289 446.753 356.577 447.141 355.844C448.478 351.418 448.434 346.975 448.562 342.375C448.622 340.487 448.686 338.599 448.754 336.711C448.79 335.463 448.79 335.463 448.826 334.189C449 332 449 332 450 329C450.719 317.037 449.43 305.701 447 294Z" fill="#030504"/>
<path d="M541.438 1501.06C541.448 1501.77 541.458 1502.47 541.469 1503.19C541.388 1507.83 540.34 1511.02 538 1515C514.389 1510.67 498.959 1495.46 485 1477C484.546 1476.4 484.091 1475.81 483.623 1475.2C472.053 1459.95 465.22 1444.17 459.06 1426.1C458.085 1423.25 457.089 1420.41 456.086 1417.57C450.854 1402.55 445.854 1386.84 444 1371C443.91 1370.23 443.82 1369.46 443.727 1368.67C443.625 1366.75 443.625 1366.75 444 1363C446.815 1360 449.684 1359.79 453.625 1359.62C465.436 1360.06 478.987 1364.97 487.812 1373.06C505.633 1393.41 514.501 1421.66 524.359 1446.43C526.627 1452.11 528.994 1457.75 531.404 1463.37C536.702 1475.78 541.247 1487.4 541.438 1501.06Z" fill="#B1D485"/>
<path d="M530 233C517.621 232.699 507.553 227.616 498 220C497.139 219.316 496.278 218.631 495.391 217.926C486.884 210.685 480.51 202.011 474 193C473.494 192.31 472.987 191.621 472.466 190.91C471.002 188.91 469.56 186.896 468.125 184.875C467.501 184.018 467.501 184.018 466.865 183.144C459.149 172.019 454.707 159.03 450.565 146.257C449.811 143.933 449.044 141.614 448.275 139.295C444.376 127.475 440.82 115.581 437.812 103.5C437.648 102.85 437.484 102.201 437.314 101.531C435.688 95.0006 434.339 88.7241 435 82.0001C440.275 77.876 445.604 78.2182 452 79.0001C467.839 83.0865 479.565 90.6184 487.961 104.647C496.951 120.131 503.588 136.63 510.406 153.145C512.312 157.759 514.241 162.364 516.17 166.969C517.776 170.809 519.37 174.654 520.961 178.5C521.902 180.765 522.854 183.026 523.809 185.285C530.016 200.127 536.109 217.141 530 233Z" fill="#B1D485"/>
<path d="M542.312 851.188C542.329 851.955 542.345 852.723 542.361 853.514C542.366 858.431 541.607 861.688 539 866C515.966 861.777 500.465 847.222 487 829C486.551 828.394 486.101 827.788 485.638 827.164C482.684 823.159 479.819 819.102 477 815C476.447 814.209 475.894 813.417 475.324 812.602C460.397 789.667 441.57 742.438 445 715C446.39 712.984 447.437 712.23 449.687 711.313C462.557 709.573 474.134 714.478 485 721C507.928 738.492 518.374 779.058 528.633 804.609C530.024 808.059 531.432 811.503 532.844 814.945C533.75 817.172 534.657 819.398 535.562 821.625C535.98 822.638 536.398 823.65 536.828 824.693C540.424 833.589 542.353 841.583 542.312 851.188Z" fill="#B1D485"/>
<path d="M558.094 1024.09C558.985 1045.51 555.584 1066.64 549 1087C548.765 1087.75 548.529 1088.51 548.287 1089.28C540.938 1112.62 530.015 1134.34 517 1155C516.575 1155.68 516.151 1156.36 515.713 1157.06C508.235 1168.96 499.931 1182.07 490 1192C484.545 1192.44 480.817 1191.59 476 1189C473.129 1185.95 472.545 1183.77 472.5 1179.62C473.265 1157.59 490.15 1135.22 501.102 1116.98C521.085 1085.04 521.085 1085.04 522.578 1048.68C517.842 1026.7 515.922 998.3 526.719 977.953C528.006 975.99 529.185 974.49 531 973C535.456 972.229 537.518 972.719 541.437 975C553.931 986.987 557.355 1007.68 558.094 1024.09Z" fill="#F5F09A"/>
<path d="M289.176 387.82C287.097 396.396 285.338 404.997 283.813 413.688C283.681 414.429 283.549 415.17 283.413 415.934C281.29 428.066 280.313 439.911 280.402 452.231C280.389 466.43 274.644 476.464 264.813 486.438C258.183 492.945 258.183 492.945 254.313 493.125C253.55 493.084 252.787 493.043 252 493C246.035 479.432 241.949 465.506 239 451C238.846 450.243 238.693 449.486 238.534 448.707C236.271 437.006 235.713 425.387 235.688 413.5C235.684 412.826 235.681 412.152 235.677 411.457C235.624 393.015 237.92 374.209 251.465 360.52C257.046 355.472 262.948 353.33 270.379 353.59C277.703 354.736 283.296 358.53 287.844 364.254C292.927 371.929 291.333 379.233 289.176 387.82Z" fill="#00ABE5"/>
<path d="M475 907C473.076 907.038 473.076 907.038 471.113 907.078C457.515 907.451 444.058 908.494 430.522 909.782C365.08 915.978 365.08 915.978 348.063 902.461C343.529 897.696 340.429 891.81 337.043 886.213C332.542 878.953 327.051 872.986 321 867C319.854 865.82 319.854 865.82 318.684 864.617C301.28 847.728 278.849 839.4 256 833C254.637 832.611 253.273 832.222 251.91 831.832C250.47 831.42 250.47 831.42 249 831C249.588 827.653 250.411 824.706 251.75 821.586C252.106 820.752 252.463 819.919 252.83 819.061C253.216 818.174 253.602 817.288 254 816.375C254.606 814.979 254.606 814.979 255.224 813.554C262.211 797.554 269.952 782.154 278.413 766.884C280.016 763.97 281.594 761.045 283.164 758.113C311.771 704.71 311.771 704.71 319 701C322.832 700.292 326.355 700.124 329.862 701.992C331.648 703.381 333.257 704.855 334.875 706.437C336.092 707.554 337.309 708.67 338.528 709.785C339.118 710.337 339.708 710.889 340.316 711.457C342.599 713.548 345.007 715.459 347.438 717.375C353.421 722.225 358.974 727.508 364.574 732.789C367.007 735.079 369.465 737.323 372 739.5C376.528 743.397 380.858 747.507 385.215 751.592C389.262 755.384 393.335 759.143 397.438 762.875C401.454 766.541 405.332 770.3 409.145 774.176C411.014 776.014 412.949 777.73 414.938 779.437C423.772 787.131 430.323 794.698 436 805C436.437 805.786 436.874 806.572 437.324 807.382C452.445 834.836 464.602 864.262 473.125 894.437C473.326 895.146 473.526 895.856 473.732 896.586C474.677 900.132 475.212 903.329 475 907ZM460.25 881.062C459.884 879.959 459.884 879.959 459.509 878.833C454.497 863.832 448.557 849.398 442 835C441.558 834.015 441.116 833.03 440.66 832.015C437.919 825.933 435.054 819.932 432 814C431.644 813.3 431.287 812.601 430.92 811.88C422.647 796.084 409.095 784.07 395.747 772.539C393.39 770.462 391.192 768.25 389 766C385.577 762.541 382.091 759.271 378.395 756.109C375.029 753.144 371.77 750.069 368.5 747C364.021 742.8 359.532 738.633 354.875 734.629C352.613 732.663 350.403 730.643 348.188 728.625C340.464 721.66 332.397 715.135 324 709C319.363 710.99 317.599 714.344 315.125 718.562C314.654 719.35 314.183 720.138 313.697 720.95C307.239 731.837 301.117 742.919 295 754C294.488 754.923 293.977 755.846 293.449 756.797C272.023 789.561 272.023 789.561 260 825C260.805 825.247 260.805 825.247 261.626 825.5C298.978 837.115 330.889 856.585 350.074 891.781C353.678 897.804 358.819 899.899 365.477 901.617C374.887 903.687 384.345 903.452 393.938 903.375C395.388 903.37 395.388 903.37 396.868 903.366C412.714 903.308 428.178 902.248 443.912 900.342C450.917 899.566 457.96 899.276 465 899C465 892.894 462.173 886.835 460.25 881.062Z" fill="#040504"/>
<path d="M440 1759C434.399 1759.29 430.852 1759.16 426 1756C422.373 1752.05 422.42 1748.84 422.618 1743.65C424.072 1729.76 431.024 1715.77 436.067 1702.83C445.629 1680.65 445.629 1680.65 443.988 1657.6C441.774 1653.23 439.282 1649.03 436.773 1644.82C433.217 1638.82 430.984 1632.69 429 1626C428.758 1625.27 428.515 1624.54 428.266 1623.79C426.198 1616.94 425.837 1609.16 428.312 1602.44C428.869 1601.63 429.426 1600.83 430 1600C430.619 1599.07 430.619 1599.07 431.25 1598.12C434.342 1596.14 436.387 1596.48 440 1597C453.872 1602.52 461.375 1616.47 468 1629C468.433 1629.77 468.866 1630.55 469.312 1631.35C488.429 1666.7 456.215 1727.24 440 1759Z" fill="#F4EF99"/>
<path d="M328 1747C327.259 1748.72 326.518 1750.44 325.778 1752.16C325.144 1753.63 324.51 1755.1 323.875 1756.56C323.592 1757.22 323.309 1757.87 323.018 1758.55C321.119 1762.88 321.119 1762.88 320 1764C314.357 1764.62 309.802 1764.28 305 1761C301.73 1755.8 302.034 1749.88 303 1744C306.215 1731.12 311.452 1718.72 316.25 1706.38C325.199 1685.51 325.199 1685.51 323.746 1663.59C321.879 1659.75 319.799 1656.11 317.625 1652.44C313.445 1645.21 310.427 1638.02 308 1630C307.701 1629.06 307.701 1629.06 307.395 1628.1C306.773 1624.79 306.734 1621.48 306.688 1618.12C306.659 1617.43 306.63 1616.74 306.6 1616.02C306.536 1610.83 307.79 1608.01 311 1604C312.52 1602.48 313.881 1602.68 316 1602.56C323.047 1602.69 327.314 1606.49 332.285 1611.13C370.663 1651.02 346.888 1703.62 328 1747Z" fill="#F5F09A"/>
<path d="M336 73.0001C335.17 78.9147 332.295 82.0244 328 86.0001C319.555 92.2052 310.383 95.0802 300.125 96.6251C299.316 96.7506 298.508 96.8761 297.675 97.0054C289.594 98.1859 281.507 98.6161 273.351 98.8423C271.335 98.9776 269.327 99.2194 267.323 99.482C262.742 100.072 258.171 100.303 253.559 100.5C252.673 100.541 251.788 100.581 250.876 100.623C248.063 100.752 245.25 100.876 242.438 101C238.749 101.165 235.06 101.331 231.371 101.5C230.474 101.541 229.578 101.581 228.654 101.623C223.408 101.868 218.172 102.176 212.934 102.547C175.307 105.158 175.307 105.158 159 98.0001C162.98 89.2744 171.969 85.3 180.471 81.9087C189.752 78.5743 199.428 76.3295 209 74.0001C209.758 73.8143 210.517 73.6285 211.298 73.4371C226.739 69.7173 241.687 68.7007 257.488 68.7696C259.326 68.7708 261.164 68.7712 263.002 68.771C266.825 68.7725 270.648 68.7807 274.471 68.7942C279.347 68.8113 284.223 68.8151 289.099 68.8143C292.883 68.8146 296.668 68.8201 300.452 68.8273C302.25 68.8305 304.047 68.8324 305.845 68.8332C331.037 68.8551 331.037 68.8551 336 73.0001Z" fill="#B1D484"/>
<path d="M557 1089C556.749 1089.79 556.498 1090.58 556.239 1091.39C544.467 1127.76 525.165 1160.23 501.945 1190.39C499.992 1192.94 499.992 1192.94 498.43 1195.51C495.136 1200.67 495.136 1200.67 491.984 1201.59C484.001 1201.94 475.049 1199.19 469 1194C464.159 1188.39 464.314 1182.15 464.625 1175.05C465.056 1169.26 466.693 1164.31 469 1159C469.769 1157.18 469.769 1157.18 470.555 1155.32C475.814 1143.36 482.56 1132.23 489.222 1121.01C510.68 1087.62 510.68 1087.62 514.576 1049.78C510.695 1026.45 506.403 993.329 520.191 972.172C523.35 968.092 526.295 965.383 531.48 964.648C537.028 964.358 541.46 964.757 546.023 968.062C576.196 997.639 568.572 1052.92 557 1089ZM541.562 975.312C538.969 973.349 537.707 972.939 534.375 972.25C530.756 973.054 529.27 974.027 527.125 977.047C520.36 988.792 519.63 1001.72 519.687 1015C519.689 1016.26 519.691 1017.52 519.694 1018.82C519.806 1029.43 520.995 1039.6 523 1050C528.113 1078.12 509.942 1102.65 496.105 1125.78C489.789 1136.35 483.793 1147.06 478.5 1158.19C478.173 1158.87 477.847 1159.55 477.51 1160.26C473.736 1168.38 471.979 1176.01 473 1185C474.883 1188.62 476.154 1189.61 479.812 1191.31C483.413 1192.09 486.324 1192.33 490 1192C492.335 1190.27 492.335 1190.27 494.125 1187.62C494.884 1186.62 495.643 1185.61 496.426 1184.57C496.835 1184 497.245 1183.43 497.666 1182.84C499.099 1180.86 500.569 1178.91 502.043 1176.96C509.668 1166.76 516.361 1156.15 522.748 1145.14C523.778 1143.38 524.843 1141.64 525.918 1139.91C549.497 1101.72 581.66 1013.89 541.562 975.312Z" fill="#030402"/>
<path d="M193.563 1049.25C188.92 1054.23 182.355 1058.53 175.461 1059.27C149.883 1060.12 128.259 1044.67 110.274 1028.09C108.161 1026.15 106 1024.29 103.813 1022.44C99.8045 1018.93 96.4122 1015.08 93.0001 1011C92.2266 1010.11 91.4532 1009.23 90.6563 1008.32C78.7893 994.527 62.7847 974.04 64.0001 955C64.7013 955.708 65.4026 956.415 66.1251 957.145C86.7827 977.78 111.001 994.731 137 1008C137.979 1008.5 137.979 1008.5 138.978 1009.01C150.267 1014.69 161.814 1019.5 174.438 1021.06C183.155 1022.14 188.294 1024.49 193.871 1031.32C197.49 1036.71 196.041 1043.65 193.563 1049.25Z" fill="#D1C5DF"/>
<path d="M186.426 813.078C181.325 819.954 174.635 821.533 166.499 822.829C152 825.203 138.829 831.035 126 838C125.007 838.532 125.007 838.532 123.993 839.075C100.417 851.743 74.8187 867.977 58.0002 889C57.6702 889 57.3402 889 57.0002 889C55.9827 868.14 73.6202 847.189 86.7502 832.563C88.1667 831.041 89.5833 829.521 91.0002 828C92.3567 826.439 93.7109 824.877 95.0627 823.313C98.7706 819.155 102.687 815.52 107 812C107.498 811.59 107.996 811.18 108.509 810.757C124.157 797.921 142.903 784.586 164 784.688C164.673 784.671 165.346 784.655 166.039 784.639C174.131 784.631 179.582 787.926 185.332 793.242C190.747 798.949 190.104 806.556 186.426 813.078Z" fill="#D1C5DF"/>
<path d="M393.852 847.192C392 849 392 849 389.32 849.496C368.52 849.115 352.607 841.154 337 828C336.02 827.219 335.041 826.438 334.031 825.633C322.204 815.723 316.695 801.979 311 788C310.563 786.941 310.126 785.881 309.676 784.789C307.662 779.631 306.507 775.541 307 770C318.368 764.493 334.555 768.057 346 772C360.739 778.096 368.645 792.602 376.536 805.599C378.362 808.593 380.227 811.562 382.096 814.53C383.718 817.107 385.326 819.693 386.932 822.28C387.925 823.88 388.921 825.477 389.918 827.074C390.461 827.957 391.003 828.84 391.562 829.75C392.245 830.856 392.245 830.856 392.941 831.985C395.374 836.616 396.348 842.428 393.852 847.192Z" fill="#B1D384"/>
<path d="M399.688 263.688C399.474 264.338 399.261 264.988 399.041 265.658C397.819 269.238 396.478 272.13 394 275C389.849 274.465 387.691 272.22 384.688 269.438C383.784 268.611 382.88 267.785 381.949 266.934C362.507 248.119 341.104 219.654 340.625 191.688C340.569 190.463 340.569 190.463 340.512 189.213C340.422 182.942 341.996 178.842 346 174C351.407 169.398 356.633 169.339 363.613 169.547C369.648 170.354 373.061 172.906 377.106 177.273C379.273 180.393 379.906 182.726 380.688 186.438C384.781 204.248 389.361 222.872 398.371 238.871C402.819 247.415 402.84 254.736 399.688 263.688Z" fill="#D1C5DF"/>
<path d="M534 241C529.991 243.005 525.713 242.172 521.492 241.152C506.965 236.273 495.864 229.754 485 219C483.94 218.031 483.94 218.031 482.859 217.043C476.812 211.401 472.171 204.727 467.428 197.996C466.053 196.074 464.636 194.194 463.203 192.316C454.869 181.159 449.876 168.978 445 156C444.643 155.063 444.286 154.125 443.918 153.16C439.485 141.399 435.882 129.444 432.625 117.312C432.124 115.451 432.124 115.451 431.613 113.552C424.645 86.918 424.645 86.918 428 77.0625C433.158 71.7433 437.983 70.7156 445.187 70.5C459.572 70.9281 474.372 76.6219 484.855 86.6328C500.07 103.427 507.972 125.55 516.435 146.191C518.274 150.674 520.144 155.143 522.016 159.612C523.623 163.455 525.219 167.303 526.815 171.15C528.041 174.098 529.276 177.041 530.512 179.984C531.321 181.927 532.129 183.87 532.937 185.812C533.303 186.678 533.669 187.543 534.046 188.434C540.864 204.913 546.15 225.715 534 241ZM514.64 163.501C512.386 158.285 510.188 153.05 508.043 147.789C492.813 107.796 492.813 107.796 460.941 81.801C455.939 79.7365 451.275 78.7087 445.875 78.6875C444.882 78.6707 443.89 78.654 442.867 78.6367C439.37 79.0798 437.602 79.5839 435 82C434.335 87.7574 435.415 92.9685 436.75 98.5625C436.907 99.2592 437.064 99.956 437.227 100.674C440.189 113.539 443.86 126.12 448.044 138.634C448.81 140.929 449.562 143.229 450.314 145.529C455.024 159.774 460.268 173.686 469 186C469.494 186.7 469.988 187.401 470.498 188.122C484.281 207.55 499.329 227.679 524 233C527.292 233.168 527.292 233.168 530 233C538.774 210.223 523.541 184.046 514.64 163.501Z" fill="#020402"/>
<path d="M545.219 871.758C543 874 543 874 540.328 874.516C522.233 872.954 507.837 863.268 495 851C494.454 850.48 493.907 849.96 493.344 849.424C489.161 845.356 485.567 841.081 482.125 836.375C481.61 835.676 481.096 834.978 480.566 834.258C479.526 832.841 478.489 831.421 477.456 829.999C476.154 828.211 474.834 826.439 473.508 824.668C462.172 809.076 456.16 791.1 450 773C449.709 772.146 449.417 771.292 449.117 770.413C432.651 721.653 432.651 721.653 437.871 710.067C440.74 706.294 444.421 703.976 449 703C464.299 701.526 478.272 706.193 490.758 714.93C512.848 733.281 521.998 766.471 532.299 792.302C535.552 800.429 538.985 808.477 542.5 816.494C550.1 834.099 556.431 854.399 545.219 871.758ZM530.5 808.875C529.421 806.361 528.346 803.845 527.271 801.33C526.55 799.645 525.828 797.961 525.106 796.277C522.878 791.083 520.695 785.874 518.563 780.641C518.17 779.678 518.17 779.678 517.77 778.696C517.515 778.069 517.26 777.443 516.997 776.797C512.434 765.604 507.673 754.673 502 744C501.527 743.018 501.054 742.036 500.567 741.024C493.075 725.956 481.982 717.402 466.258 712.07C459.887 710.461 452.96 709.845 447 713C444.753 714.788 444.753 714.788 444.942 717.2C448.382 749.536 459.636 791.374 479 818C479.428 818.594 479.856 819.187 480.297 819.799C495.155 840.314 509.717 858.206 535.012 865.688C537.203 866.188 537.203 866.188 540 865C542.413 860.774 542.367 856.368 542.375 851.625C542.4 850.915 542.424 850.205 542.449 849.473C542.524 835.161 536.082 821.733 530.5 808.875Z" fill="#020402"/>
<path d="M545.387 1519.36C543.205 1521.94 541.469 1522.94 538.125 1523.38C523.471 1522.88 509.728 1514.25 499 1505C498.386 1504.52 497.773 1504.04 497.141 1503.54C473.712 1484.9 459.858 1454.4 450.812 1426.75C450.288 1425.16 449.762 1423.58 449.236 1421.99C446.712 1414.36 444.231 1406.72 442 1399C441.74 1398.12 441.48 1397.24 441.213 1396.33C432.836 1367.56 432.836 1367.56 437.328 1358.25C440.004 1354.65 442.71 1353.22 447 1352C463.656 1350.18 479.402 1355.82 492.375 1366.19C506.274 1379.55 514.14 1399.58 521.25 1417.12C521.889 1418.69 522.53 1420.25 523.171 1421.81C524.152 1424.19 525.132 1426.58 526.108 1428.96C528.266 1434.23 530.459 1439.49 532.68 1444.73C532.973 1445.43 533.266 1446.12 533.568 1446.84C534.685 1449.48 535.801 1452.12 536.924 1454.75C556.522 1500.8 556.522 1500.8 545.387 1519.36ZM530 1459.88C529.328 1458.29 528.657 1456.71 527.987 1455.13C526.969 1452.72 525.951 1450.32 524.929 1447.92C522.833 1442.99 520.78 1438.05 518.769 1433.09C507.205 1402.15 507.205 1402.15 489 1375C488.072 1373.99 488.072 1373.99 487.125 1372.95C478.321 1364.37 465.858 1360.13 453.75 1359.69C450.782 1359.78 448.737 1360.08 445.875 1361C443.443 1363.59 443.777 1365.4 443.862 1368.83C444.422 1377.66 446.712 1386.45 449.246 1394.91C449.462 1395.63 449.678 1396.36 449.9 1397.11C452.18 1404.71 454.616 1412.26 457.12 1419.78C457.875 1422.06 458.619 1424.34 459.363 1426.63C466.237 1447.48 475.579 1464.65 489 1482C489.789 1483.03 490.578 1484.06 491.391 1485.12C502.418 1499.1 517.01 1511.46 535 1515C537.215 1515.05 537.215 1515.05 539 1514C541.391 1509.96 541.366 1505.7 541.375 1501.12C541.412 1500.13 541.412 1500.13 541.449 1499.12C541.525 1485.38 535.319 1472.25 530 1459.88Z" fill="#020402"/>
<path d="M344 77.9999C340.522 87.5637 332.946 93.6583 324.188 98.3124C297.737 110.531 262.556 108.678 233.873 109.659C229.589 109.811 225.357 110.05 221.094 110.508C213.257 111.254 205.398 111.26 197.532 111.295C195.728 111.307 193.924 111.327 192.12 111.357C177.378 111.597 162.241 111.303 150 102C149.34 101.34 148.68 100.68 148 99.9999C148.783 93.3528 154.579 88.1026 159.375 83.9374C172.383 74.1142 188.441 70.6069 203.981 66.7548C206.548 66.1131 209.1 65.4369 211.652 64.7421C234.705 58.7045 259.31 59.8084 282.938 59.7499C284.157 59.7446 285.377 59.7392 286.633 59.7337C298.889 59.6929 311.097 59.8049 323.317 60.8281C324.199 60.8972 325.082 60.9663 325.991 61.0375C332.319 61.6471 337.576 62.8241 342.438 67.1874C344.508 70.9133 344.827 73.8973 344 77.9999ZM336 72.9999C327.966 66.2868 313.358 68.8184 303.352 68.7968C302.459 68.794 301.567 68.7912 300.647 68.7882C295.916 68.7733 291.186 68.764 286.456 68.7597C281.631 68.7542 276.806 68.7303 271.981 68.7017C268.218 68.6829 264.455 68.6779 260.692 68.6764C258.916 68.6734 257.141 68.6655 255.366 68.6522C238.258 68.5328 221.793 70.7181 205.188 74.8749C204.133 75.1354 203.078 75.3959 201.991 75.6642C178.085 81.4304 178.085 81.4304 159 95.9999C159 96.6599 159 97.3199 159 97.9999C179.125 106.855 204.107 103.289 225.367 101.784C235.118 101.095 244.858 100.634 254.629 100.342C258.839 100.207 262.995 100.058 267.172 99.496C270.64 99.0466 274.006 98.8341 277.494 98.7097C296.033 98.0322 316.73 96.6762 330.856 83.2343C333.799 80.0184 335.727 77.5126 336 72.9999Z" fill="#030603"/>
<path d="M482.313 1654.12C482.308 1655.05 482.303 1655.97 482.298 1656.92C482.161 1664.95 480.944 1672.19 479 1680C478.733 1681.34 478.472 1682.69 478.215 1684.03C473.783 1705.66 461.897 1751.1 446 1767C437.32 1767.63 428.417 1768.27 421 1763C418.563 1760.5 418.563 1760.5 417 1758C416.647 1757.44 416.294 1756.87 415.93 1756.29C408.604 1738.23 422.593 1713.9 429.16 1697.26C434.261 1685.44 434.261 1685.44 437 1673C437.11 1672.24 437.219 1671.47 437.332 1670.69C438.063 1662.16 434.334 1656.59 430.004 1649.66C421.768 1636.04 417.588 1619.83 419 1604C420.68 1598.16 423.629 1592.99 428.93 1589.79C434.295 1587.75 439.404 1588.09 444.766 1589.97C457.305 1596.13 465.518 1606.96 472 1619C472.358 1619.66 472.715 1620.32 473.084 1620.99C474.201 1623.07 475.293 1625.16 476.375 1627.25C476.709 1627.89 477.043 1628.52 477.388 1629.18C481.419 1637.25 482.37 1645.19 482.313 1654.12ZM455 1609C454.237 1607.95 453.474 1606.9 452.688 1605.81C448.036 1600.94 442.83 1597.56 436.188 1596.25C431.625 1597.32 430.579 1599.13 428 1603C423.226 1617.32 430.959 1633.3 437.046 1646.15C438.476 1648.92 440.217 1651.47 441.938 1654.06C446.923 1662.32 445.964 1671.09 443.961 1680.15C441.464 1689.72 437.598 1698.87 434 1708.06C424.745 1729.33 424.745 1729.33 423 1752C424.778 1755.29 426.073 1756.46 429.25 1758.31C431.753 1758.94 433.621 1759.07 436.172 1759.04C437.435 1759.03 438.698 1759.01 440 1759C464.022 1714.88 492.465 1652.47 455 1609Z" fill="#030402"/>
<path d="M204.312 1039.69C204.183 1046.54 201.497 1052.79 196.875 1057.81C187.667 1066.24 177.208 1067.67 165.26 1067.17C144.654 1065.62 125.127 1052.03 110 1039C109.201 1038.31 108.402 1037.63 107.578 1036.92C105.009 1034.65 102.497 1032.34 100 1030C99.4753 1029.51 98.9507 1029.02 98.4102 1028.51C81.6834 1012.74 67.8001 994.356 59 973C58.6584 972.171 58.3168 971.342 57.9648 970.488C54.5141 960.778 54.3799 949.615 58.7812 940.23C62.6954 933.067 62.6954 933.067 65 930C65.33 930 65.66 930 66 930C66.0947 931.468 66.0947 931.468 66.1914 932.965C67.0344 941.989 68.4015 947.401 75 954C75.5762 954.638 76.1524 955.276 76.7461 955.934C82.8041 962.408 89.9414 967.68 97 973C97.6892 973.523 98.3783 974.046 99.0884 974.584C118.571 989.288 139.906 1001.88 163 1010C163.995 1010.37 164.99 1010.74 166.016 1011.12C169.032 1012.01 171.493 1012.2 174.625 1012.25C183.607 1012.87 191.305 1017.1 198 1023C202.232 1028.38 203.741 1032.94 204.312 1039.69ZM189.062 1026.19C184.398 1022.86 180.598 1021.84 174.938 1021.31C141.843 1016.71 110.241 994.773 85 974C84.4101 973.515 83.8202 973.031 83.2124 972.532C81.32 970.969 79.4389 969.394 77.5625 967.812C76.9945 967.337 76.4265 966.862 75.8413 966.372C72.2467 963.289 69.1692 960.001 66.1794 956.327C65.5956 955.67 65.5956 955.67 65 955C64.67 955 64.34 955 64 955C63.7325 960.323 64.5212 964.579 66.4375 969.5C66.7026 970.19 66.9678 970.88 67.241 971.591C73.7486 987.8 84.629 1001.7 96.5195 1014.31C99 1017 99 1017 101.094 1019.64C102.841 1021.8 104.571 1023.52 106.688 1025.31C108.832 1027.14 110.959 1028.96 113.027 1030.88C129.713 1046.29 151.418 1060.26 174.988 1059.45C182.187 1058.37 188.498 1054.73 193 1049C197.716 1040.06 196.68 1032.88 189.062 1026.19Z" fill="#020403"/>
<path d="M361.375 1659.69C361.36 1661.42 361.36 1661.42 361.344 1663.18C361.187 1671.84 360.315 1679.63 358 1688C357.605 1689.54 357.21 1691.08 356.816 1692.62C349.533 1720.22 337.792 1746.11 326 1772C323.429 1772.03 320.859 1772.05 318.289 1772.07C317.564 1772.08 316.84 1772.08 316.094 1772.09C309.769 1772.12 305.044 1771.84 300.23 1767.35C294.766 1761.29 294.187 1755.41 294.402 1747.38C295.627 1731.13 303.987 1714.81 309.954 1699.82C312.795 1692.65 315.415 1685.57 317 1678C317.18 1677.17 317.361 1676.35 317.547 1675.5C318.386 1668 314.157 1662.4 310.461 1656.24C308.022 1652.14 305.977 1647.93 304.062 1643.56C303.781 1642.94 303.499 1642.31 303.209 1641.67C299.802 1633.77 298.639 1626 298.625 1617.44C298.6 1616.64 298.576 1615.84 298.551 1615.02C298.522 1609.21 299.75 1604.85 303 1600C306.851 1596.34 310.725 1593.73 316.125 1593.56C324.668 1593.8 331.68 1598.83 337.715 1604.53C344.561 1611.94 349.886 1620.28 354.437 1629.25C354.755 1629.87 355.073 1630.5 355.4 1631.14C359.981 1640.59 361.509 1649.2 361.375 1659.69ZM345.812 1630.5C345.418 1629.77 345.024 1629.03 344.617 1628.28C339.248 1618.55 331.695 1607.39 321 1603C317.929 1602.49 315.065 1602.43 312 1603C308.636 1606.2 307.077 1608.73 306.797 1613.34C306.643 1621.42 306.945 1628.41 310 1636C310.34 1636.92 310.68 1637.84 311.031 1638.78C313.8 1645.89 317.34 1652.33 321.23 1658.87C325.875 1667.08 326.278 1674.61 324.094 1683.82C323.7 1685.17 323.296 1686.53 322.883 1687.88C322.662 1688.61 322.441 1689.34 322.214 1690.1C319.688 1698.3 316.587 1706.27 313.437 1714.25C305.613 1732.11 305.613 1732.11 302.562 1751C302.564 1752.03 302.565 1753.06 302.566 1754.12C303.061 1757.41 304.057 1759.33 306 1762C310.355 1764.69 315.062 1764.16 320 1764C324.488 1755.3 328.533 1746.46 332.312 1737.44C332.592 1736.77 332.872 1736.1 333.161 1735.41C338.829 1721.84 343.776 1708.1 348 1694C348.284 1693.07 348.567 1692.14 348.86 1691.18C354.958 1670.71 356.221 1649.68 345.812 1630.5Z" fill="#030402"/>
<path d="M286.813 524C286.719 524.983 286.719 524.983 286.624 525.985C286.494 527.339 286.357 528.693 286.21 530.045C285.278 538.728 284.903 547.398 284.875 556.125C284.868 557.352 284.868 557.352 284.861 558.605C284.863 559.377 284.865 560.149 284.868 560.945C284.869 561.974 284.869 561.974 284.871 563.024C285.008 565.122 285.469 566.97 286 569C287.079 580.61 285.462 587.4 277.996 596.422C274.225 600.573 274.225 600.573 272 602C269.434 601.961 269.434 601.961 267 601C252.04 584.424 245.049 552.272 245.692 530.805C246.442 521.553 249.923 514.096 257 508C262.122 505.207 268.298 505.234 274 506C282.729 509.091 287.863 514.349 286.813 524Z" fill="#D2C6E0"/>
<path d="M216 867C213.425 869.575 212.284 870.525 209.147 871.907C207.983 872.426 207.983 872.426 206.795 872.955C205.95 873.323 205.105 873.691 204.234 874.07C203.345 874.464 202.455 874.859 201.538 875.265C198.612 876.559 195.681 877.842 192.75 879.125C190.727 880.015 188.704 880.905 186.682 881.796C182.522 883.626 178.36 885.452 174.198 887.276C169.213 889.463 164.239 891.671 159.269 893.892C155.679 895.495 152.084 897.088 148.489 898.68C146.792 899.433 145.097 900.19 143.403 900.951C141.054 902.005 138.698 903.045 136.34 904.082C135.305 904.552 135.305 904.552 134.25 905.032C131.688 906.145 129.563 907.016 126.743 906.935C124.378 905.666 123.302 904.162 121.766 901.965C121.192 901.156 120.618 900.347 120.027 899.514C119.441 898.664 118.854 897.813 118.25 896.938C117.648 896.083 117.046 895.229 116.426 894.35C114.941 892.24 113.466 890.123 112 888C114.769 885.231 118.107 884.062 121.652 882.535C122.839 882.017 122.839 882.017 124.05 881.488C126.677 880.342 129.307 879.202 131.938 878.062C134.704 876.858 137.469 875.652 140.235 874.446C142.165 873.604 144.095 872.763 146.025 871.922C153.078 868.848 160.117 865.741 167.148 862.617C168.622 861.963 168.622 861.963 170.125 861.296C173.97 859.589 177.815 857.882 181.658 856.169C184.319 854.984 186.981 853.802 189.645 852.621C190.829 852.091 190.829 852.091 192.038 851.55C192.768 851.228 193.497 850.905 194.249 850.572C194.881 850.291 195.512 850.01 196.162 849.72C198 849 198 849 202 848C206.62 854.27 211.24 860.54 216 867Z" fill="#7D4C20"/>
<path d="M221 966C220.389 969.254 219.283 971.273 217.277 973.891C216.47 974.954 216.47 974.954 215.646 976.039C215.083 976.769 214.519 977.498 213.938 978.25C213.086 979.368 213.086 979.368 212.217 980.508C210.817 982.343 209.411 984.173 208 986C202.796 985.4 198.607 983.724 193.887 981.598C193.096 981.248 192.304 980.898 191.489 980.538C188.886 979.386 186.287 978.224 183.688 977.062C181.875 976.258 180.063 975.455 178.25 974.653C174.452 972.971 170.656 971.286 166.86 969.599C160.995 966.994 155.12 964.412 149.242 961.836C148.298 961.422 147.354 961.008 146.381 960.582C144.519 959.766 142.657 958.95 140.795 958.134C136.437 956.225 132.079 954.315 127.723 952.402C126.966 952.071 126.21 951.739 125.431 951.398C120.228 949.114 120.228 949.114 118 948C119.6 943.037 122.525 939.298 125.625 935.188C126.141 934.495 126.656 933.802 127.188 933.088C128.453 931.388 129.726 929.694 131 928C136.204 928.6 140.393 930.276 145.113 932.402C145.904 932.752 146.696 933.102 147.511 933.462C150.114 934.614 152.713 935.776 155.312 936.938C157.125 937.742 158.937 938.545 160.75 939.347C164.548 941.029 168.344 942.714 172.14 944.401C178.005 947.006 183.88 949.588 189.758 952.164C190.702 952.578 191.646 952.992 192.619 953.418C194.481 954.234 196.343 955.05 198.205 955.866C202.563 957.775 206.921 959.685 211.277 961.598C212.034 961.929 212.79 962.261 213.569 962.602C218.772 964.886 218.772 964.886 221 966Z" fill="#7D4C20"/>
<path d="M401.312 851.563C400.549 852.367 399.786 853.171 399 854C398.01 855.176 398.01 855.176 397 856.375C388.483 860.988 376.801 857.445 368 855C355.051 850.793 344.368 844.748 334 836C332.912 835.141 331.822 834.284 330.73 833.43C323.528 827.715 318.26 822.282 314 814C313.617 813.26 313.235 812.519 312.841 811.756C308.084 802.447 303.744 793.03 300.375 783.125C300.127 782.407 299.88 781.689 299.625 780.949C298.203 776.523 297.577 772.638 298 768C302.371 762.537 306.266 760.949 313 760C331.267 758.815 349.19 761.413 363.522 773.636C365.926 775.855 367.99 778.306 370 780.875C370.46 781.461 370.92 782.047 371.394 782.651C377.125 790.181 381.854 798.356 386.687 806.477C389.392 811.02 392.214 815.463 395.125 819.875C401.452 829.738 406.854 839.864 401.312 851.563ZM385.127 819.096C381.715 814.134 378.584 809.047 375.5 803.875C366.513 788.976 357.319 775.205 339.914 770.094C333.232 768.442 326.795 767.726 319.937 767.688C319.223 767.682 318.509 767.677 317.773 767.671C313.758 767.726 310.615 768.231 307 770C306.53 776.305 308.13 781.045 310.437 786.875C310.796 787.793 311.154 788.71 311.523 789.655C321.546 814.702 336.927 832.487 361.562 844.375C370.825 848.107 382.039 850.844 392 849C394.454 846.556 394.952 845.341 395.437 841.875C394.438 833.021 390.091 826.309 385.127 819.096Z" fill="#020402"/>
<path d="M404.539 274.558C402.068 277.977 399.553 280.682 396 283C391.228 283.618 388.589 283.071 384.678 280.318C372.597 270.826 362.805 258.474 354 246C353.577 245.405 353.153 244.81 352.716 244.197C339.952 226.047 330.331 205.552 332 183C333.773 175.63 338.721 168.768 345.09 164.648C352.566 160.778 360.429 159.587 368.695 161.683C376.242 164.464 381.753 168.269 385.688 175.375C387.841 180.091 389.093 184.882 390.279 189.917C395.928 213.862 395.928 213.862 406.336 235.984C412.844 247.779 411.092 263.083 404.539 274.558ZM396.384 234.163C391.698 225.566 388.852 216.626 386.188 207.25C385.999 206.587 385.811 205.924 385.616 205.241C383.485 197.699 381.497 190.136 379.784 182.485C378.129 177.239 374.855 174.102 370.227 171.351C363.952 168.723 356.534 168.568 350.195 171.137C345.491 174.075 343.01 176.735 341 182C340.586 185.095 340.571 188.131 340.625 191.25C340.637 192.102 340.648 192.954 340.66 193.831C340.822 200.044 341.474 205.275 344 211C344.253 211.599 344.506 212.199 344.766 212.817C353.06 232.339 365.548 249.101 379.875 264.625C380.41 265.205 380.946 265.785 381.497 266.383C385.91 271.082 385.91 271.082 391 275C393.205 275.13 393.205 275.13 395 274C404.324 261.976 403.337 246.777 396.384 234.163Z" fill="#020403"/>
<path d="M236 922C233.704 926.946 230.687 929.308 226 932C219.861 934.046 212.5 934.106 206.563 931.375C202.945 929.177 199.672 926.996 198 923C197.215 917.95 196.881 912.789 198.817 907.965C202.46 903.001 208.573 900.584 214.453 899.582C222.402 899.12 228.484 902.237 234.625 907.062C236.899 911.921 236.699 916.744 236 922Z" fill="#7E4C21"/>
<path d="M367 1176C363.128 1177.45 360.177 1176.54 356.25 1175.56C355.08 1175.28 353.909 1174.99 352.703 1174.69C351.811 1174.46 350.919 1174.24 350 1174C350.66 1173.01 351.32 1172.02 352 1171C362.558 1174.08 362.558 1174.08 367 1176Z" fill="#C8C8C8"/>
</g>
<defs>
<clipPath id="clip0_603_6">
<rect width="1801" height="585" fill="white" transform="matrix(0 1 -1 0 585 0)"/>
</clipPath>
</defs>
</svg>
