<svg width="61" height="65" viewBox="0 0 61 65" fill="none" xmlns="http://www.w3.org/2000/svg">
<path d="M58.926 7.39893L40.626 0.181244H40.4137C40.2706 0.16391 40.1282 0.16391 39.9867 0.181244H38.674L21.35 7.21952L4.02602 0.181244C3.5673 0.00183868 3.0793 -0.04496 2.60106 0.0434418C2.12526 0.129242 1.67142 0.350243 1.28102 0.685646C0.885741 1.01845 0.5661 1.45786 0.34162 1.96486C0.119581 2.47447 0.00246205 3.03608 2.20548e-05 3.61068V54.1345C-0.00241794 54.8911 0.19766 55.6295 0.57098 56.2457C0.94186 56.8593 1.4689 57.3221 2.07402 57.5639L20.374 64.7816C20.9889 65.0182 21.6501 65.0182 22.265 64.7816L39.65 57.9227L56.974 64.961C57.2993 65.013 57.6247 65.013 57.95 64.961C58.5868 64.9714 59.209 64.7296 59.719 64.2746C60.1143 63.9444 60.4339 63.505 60.6584 62.998C60.8804 62.4884 60.9975 61.9242 61 61.3522V10.8284C61.0024 10.0718 60.8023 9.33335 60.429 8.71714C60.0581 8.10353 59.5311 7.64073 58.926 7.39893ZM18.3 56.3367L6.10002 51.537V8.62614L18.3 13.4258V56.3367ZM36.6 51.537L24.4 56.3367V13.4258L36.6 8.62614V51.537ZM54.9 56.3367L42.7 51.537V8.62614L54.9 13.4258V56.3367Z" fill="black"/>
</svg>
